<svg xmlns="http://www.w3.org/2000/svg" xmlns:xlink="http://www.w3.org/1999/xlink" viewBox="0 0 1920 1080"><defs><style>.cls-1{isolation:isolate;}.cls-2{fill:url(#Ads覺z_degrade_14);}.cls-3{fill:url(#Ads覺z_degrade_19);}.cls-4{fill:#bed5dc;}.cls-5{fill:#f7b686;}.cls-6{fill:#2f1a31;}.cls-7{fill:#436e8e;}.cls-8{fill:#9bbcb6;}.cls-9{fill:#020202;}.cls-10{fill:#e28569;}.cls-11{fill:#db6b49;}.cls-12{fill:#fff;}.cls-13{fill:#060633;}.cls-14{fill:#6f4975;}.cls-15{opacity:0.3;}.cls-16{opacity:0.5;}.cls-17{fill:#e08b65;}.cls-18{fill:#96b4e0;}.cls-19{fill:#deebe9;}.cls-20{fill:#ced891;}.cls-21{fill:#56335b;}.cls-22{fill:#96a7e2;}.cls-23{fill:#a5b9ef;}.cls-24{fill:#7c4b39;}.cls-25{fill:#fcbba4;}.cls-26{fill:#ffc7b0;}.cls-27,.cls-28{fill:#081344;}.cls-28{opacity:0.2;}.cls-29{fill:#313d6e;}.cls-30{fill:#716f82;}.cls-31{fill:#b1aec1;}.cls-32{fill:#585668;}.cls-33{fill:#ddd;}.cls-34{fill:#767684;}.cls-35{fill:#1f3468;}.cls-36{fill:#aba9c4;}.cls-37{fill:#6e89c4;}.cls-38{fill:#ffc543;}.cls-39{fill:#ea5444;}.cls-40{fill:#a29fb0;}.cls-41{fill:#4a4960;}.cls-42{fill:#e79271;}.cls-43{fill:#a5483c;}.cls-44{fill:#84352f;}.cls-45{fill:#7f3954;}.cls-46{fill:#6e3856;}.cls-47{fill:#df7d54;}.cls-48{fill:none;stroke:#081344;stroke-linecap:round;stroke-miterlimit:10;stroke-width:1.49px;}.cls-49{fill:#1c1c2d;}.cls-50{fill:#a0523a;}.cls-51,.cls-56{fill:#25253a;}.cls-52{fill:#2d2d3a;}.cls-53{fill:#072050;}.cls-54{fill:#9f293b;}.cls-55{fill:#f14747;}.cls-56{opacity:0.32;mix-blend-mode:multiply;}</style><linearGradient id="Ads覺z_degrade_14" x1="6.6" y1="1091.4" x2="1115.35" y2="450.15" gradientUnits="userSpaceOnUse"><stop offset="0" stop-color="#0071bc"/><stop offset="1" stop-color="#6b3296"/></linearGradient><linearGradient id="Ads覺z_degrade_19" x1="4.55" y1="3.59" x2="1905.8" y2="66.09" gradientUnits="userSpaceOnUse"><stop offset="0" stop-color="#9e005d"/><stop offset="1" stop-color="#f7931e"/></linearGradient></defs><g class="cls-1"><g id="katman_1" data-name="katman 1"><rect class="cls-2" width="1920" height="1080"/><rect class="cls-3" width="1920" height="70"/><ellipse class="cls-4" cx="1480.27" cy="841.67" rx="318.27" ry="30.85"/><path class="cls-5" d="M1349.42,614.28h0a1.56,1.56,0,0,0,2.19.07l9.63-9.06a1.56,1.56,0,0,0,.07-2.19h0a1.56,1.56,0,0,0-2.19-.07l-9.63,9.06A1.56,1.56,0,0,0,1349.42,614.28Z"/><path class="cls-5" d="M1346.7,611.39h0a1.56,1.56,0,0,0,2.19.07l10.77-10.13a1.56,1.56,0,0,0,.07-2.19h0a1.56,1.56,0,0,0-2.19-.07l-10.77,10.13A1.56,1.56,0,0,0,1346.7,611.39Z"/><rect class="cls-5" x="1334.74" y="606.96" width="13.78" height="4.3" rx="1.87" transform="translate(546.83 1849.79) rotate(-81.77)"/><path class="cls-5" d="M1344,608.51h0a1.55,1.55,0,0,0,2.19.06l8.63-8.12a1.56,1.56,0,0,0,.07-2.19h0a1.55,1.55,0,0,0-2.19-.06l-8.64,8.12A1.55,1.55,0,0,0,1344,608.51Z"/><path class="cls-5" d="M1345.78,621.4s8.63-2,11.31-7.65c.93-2-7.3-10.25-9.63-9.53s-7.62,6.78-7.62,6.78Z"/><path class="cls-5" d="M1352.11,617.16h0a1.54,1.54,0,0,0,2.18.06l8.62-8.1a1.55,1.55,0,0,0,.07-2.18h0a1.56,1.56,0,0,0-2.19-.07l-8.61,8.1A1.56,1.56,0,0,0,1352.11,617.16Z"/><path class="cls-5" d="M1339.5,608.42c-15.3,8-37.92,18.32-58.74,22a59.54,59.54,0,0,1-9.55,1.18c-2.31.07-4.82,4.23-4.74,8.19.07,3.72,2.69,6.91,5.48,7.35,2.08.33,4.27.17,9.66-.68,18.73-3,40.06-11.28,65.36-25.37Z"/><path class="cls-6" d="M1252.93,829.5s.13,5,3.5,6.39,13.16,2.68,9.5,5.89c-2.09,1.84-12,.65-14.77.65s-5.41,1.21-7.48-.65c-2.28-2.06,0-12.28,0-12.28a11.14,11.14,0,0,0,4.57,1.19A8.93,8.93,0,0,0,1252.93,829.5Z"/><path class="cls-6" d="M1214.16,829.49s.13,5,3.5,6.4,13.16,2.68,9.5,5.89c-2.09,1.84-12,.65-14.77.65s-5.41,1.21-7.48-.65c-2.28-2.06,0-12.29,0-12.29a11.08,11.08,0,0,0,4.57,1.2A8.87,8.87,0,0,0,1214.16,829.49Z"/><path class="cls-7" d="M1278,692.73s.63,20.88-6,60.94c-4.81,28.92-10.49,58.07-13.28,72a10.9,10.9,0,0,1-10.18,8.85l-2.68.11a9.14,9.14,0,0,1-9.36-9.91l6.76-94.53,1.67-31.11Z"/><path class="cls-6" d="M1219.51,708.61c0,2.56,14.31,4,32,3.89s31.85-.9,31.85-3.46-14.11-5.91-31.84-5.81S1219.51,706.05,1219.51,708.61Z"/><path class="cls-7" d="M1264.09,710.52l-43.84,117.81a12.11,12.11,0,0,1-11.3,8.6l-2.26,0a8.57,8.57,0,0,1-8.43-10.21L1221.11,710c.3-1.35,5.05-2,6.4-2.08C1238.69,707,1264.78,705.53,1264.09,710.52Z"/><path class="cls-8" d="M1235.33,640.54s7-13.21,24.49-10c8.29,1.5,17.1,4.28,19.12,19.53,1.8,13.7,6.52,32.48,4.46,59,0,0-28-10.51-63.89-.64,0,0,1.34-38.91,7.79-61C1229.11,641.13,1233,644.75,1235.33,640.54Z"/><path class="cls-8" d="M1221,632.67l13.38,15s40.59,11.52,44.74,3.82c6.13-11.38-.4-22.5-.4-22.5s-15,.55-22.3.67c-2.65,0-8.91-.52-11.52-.61C1226.76,628.49,1221,632.67,1221,632.67Z"/><path class="cls-9" d="M1239.87,776.5l-.61-.15,9.24-39.5a23.86,23.86,0,0,1,10.82-13.35l.31.54a23.27,23.27,0,0,0-10.52,13Z"/><path class="cls-10" d="M1264.19,626.29l0-.21s2.31-.51,3-2a3,3,0,0,0-.41-2.8l-.82-1.37c-1.71-2.85-2.35-3.92-1.82-6.22l.2.05c-.51,2.21.07,3.18,1.8,6.06l.81,1.37a3.22,3.22,0,0,1,.43,3C1266.59,625.75,1264.29,626.26,1264.19,626.29Z"/><path class="cls-10" d="M1264.17,613.68a10.51,10.51,0,0,0,1.43,7.34c2.29,3.78-.34,6.46-3.51,5s-4.48,2.56-8.53.22S1264.17,613.68,1264.17,613.68Z"/><path class="cls-5" d="M1244.92,629.08a4.89,4.89,0,0,0,4.07-2.85l2.31-5.08.67-1.48,3.94-8.66-.83,9-.5,5.44-.15,1.54a2.48,2.48,0,0,0,2,2.65h0c.65,1.1,1.53,3.33-1.25,4.16-3.27,1-8.47-1.7-10.3-4.76Z"/><path class="cls-6" d="M1251.3,621v.15c.16,2.92,3.26,4.35,3.26,4.35h0l.5-5.44c-.95-.36-2.3-.75-3.11-.38A1.28,1.28,0,0,0,1251.3,621Z"/><path class="cls-5" d="M1264.81,612.64c.12-5.81-3.6-10.59-8.3-10.68s-8.61,4.53-8.73,10.33,3.6,10.58,8.3,10.68S1264.69,618.44,1264.81,612.64Z"/><path class="cls-5" d="M1248.89,613.9a2.1,2.1,0,0,0,3,.27,2.35,2.35,0,0,0-.42-3.13,2.1,2.1,0,0,0-3-.27A2.34,2.34,0,0,0,1248.89,613.9Z"/><path class="cls-11" d="M1260.74,619.35a18.4,18.4,0,0,1-5.79-1.07,2.84,2.84,0,0,0,2.84,3.12C1259.62,621.55,1260.74,619.35,1260.74,619.35Z"/><path class="cls-12" d="M1260.74,619.35a3.77,3.77,0,0,1-2.35.53,6.77,6.77,0,0,1-3.44-1.6A27.21,27.21,0,0,0,1260.74,619.35Z"/><path class="cls-13" d="M1257.12,612.58a.2.2,0,0,0,.13-.11.2.2,0,0,0-.1-.25,2.08,2.08,0,0,0-2.52.5.19.19,0,0,0,0,.28.22.22,0,0,0,.27,0,3.34,3.34,0,0,1,2.09-.43A.2.2,0,0,0,1257.12,612.58Z"/><path class="cls-13" d="M1255.54,614.68c0,.46.23.85.56.87s.63-.35.65-.81-.22-.85-.56-.87S1255.57,614.22,1255.54,614.68Z"/><path class="cls-13" d="M1264,613.73a.18.18,0,0,0,.16-.05.19.19,0,0,0,0-.28,2.1,2.1,0,0,0-2.52-.49.21.21,0,0,0-.1.26.21.21,0,0,0,.25.1,3.31,3.31,0,0,1,2.1.41A.22.22,0,0,0,1264,613.73Z"/><path class="cls-13" d="M1261.75,615.07a.77.77,0,0,0,.19,1c.31.14.71-.08.91-.5a.76.76,0,0,0-.19-1C1262.36,614.43,1262,614.65,1261.75,615.07Z"/><path class="cls-10" d="M1260.08,603.94s-.25,3.64-4.82,4.17-7.74,2.39-7.19,5.68,7.74,10.24,2.3,12.77-4.2-2.37-10.07-1.35-6.77-6.8-2.65-11.25,2.73-16.47,17.81-15.63,9.31,12.76,9.31,12.76S1260,608,1260.08,603.94Z"/><path class="cls-12" d="M1248.8,627.2l0-.11a3,3,0,0,0,2-1.91c.69-2.37-2.06-6.1-4.49-9.38-.65-.87-1.26-1.7-1.79-2.48a5.8,5.8,0,0,1-.23-6.72c1.52-2.18,4.34-3.06,7.35-2.29,5.58,1.41,8-1.92,8-1.95l.1.07s-2.49,3.43-8.15,2c-3-.75-5.73.1-7.21,2.24a5.6,5.6,0,0,0,.22,6.58c.53.78,1.14,1.6,1.79,2.47,2.44,3.31,5.22,7.06,4.51,9.49A3.16,3.16,0,0,1,1248.8,627.2Z"/><path class="cls-14" d="M1263.28,620.6a2.43,2.43,0,0,1-1.3-.41c-1.81-1.17-2.43-4.63-1.38-7.69h0a5.67,5.67,0,0,1,3.08-3.71,2.47,2.47,0,0,1,2.21.26c1.81,1.17,2.43,4.62,1.38,7.69a5.71,5.71,0,0,1-3.08,3.72A2.65,2.65,0,0,1,1263.28,620.6Zm-2.32-8c-1,2.9-.44,6.16,1.23,7.25a2.15,2.15,0,0,0,1.88.22,5.35,5.35,0,0,0,2.84-3.48c1-2.91.44-6.17-1.23-7.25a2.11,2.11,0,0,0-1.88-.22,5.32,5.32,0,0,0-2.84,3.48Z"/><g class="cls-15"><path class="cls-12" d="M1250.79,610.3c-.74,3,.28,6.23,2.29,7.24s4.25-.58,5-3.57-.28-6.23-2.29-7.24S1251.53,607.31,1250.79,610.3Z"/></g><g class="cls-15"><path class="cls-12" d="M1260.51,612.75c-.74,3,.1,6.29,1.89,7.34s3.85-.52,4.59-3.52-.1-6.29-1.89-7.34S1261.26,609.75,1260.51,612.75Z"/></g><path class="cls-14" d="M1254.51,617.94a3,3,0,0,1-1.35-.34c-2.22-1.09-3.36-4.58-2.55-7.77h0a5.64,5.64,0,0,1,2.81-3.88,3.14,3.14,0,0,1,2.77,0c2.21,1.09,3.35,4.58,2.54,7.77a5.62,5.62,0,0,1-2.81,3.88A3.26,3.26,0,0,1,1254.51,617.94Zm.32-11.91a2.79,2.79,0,0,0-1.25.27,5.34,5.34,0,0,0-2.61,3.62h0c-.76,3,.29,6.32,2.35,7.34a2.86,2.86,0,0,0,2.44,0,5.39,5.39,0,0,0,2.61-3.64c.76-3-.29-6.31-2.35-7.34A2.85,2.85,0,0,0,1254.83,606Z"/><path class="cls-14" d="M1260.89,613.88a.35.35,0,0,1-.22-.08h0a3.17,3.17,0,0,0-2.53-.5.37.37,0,0,1-.41-.29.35.35,0,0,1,.29-.41,3.79,3.79,0,0,1,3.11.66.35.35,0,0,1,0,.5A.36.36,0,0,1,1260.89,613.88Z"/><path class="cls-6" d="M1220.92,632.77c-1.41,1.36,0,5.22,4.76,9.86s7,6.32,9,4c1.36-1.5,1.2-7.7-3.7-11.61C1227.2,632,1221.93,631.8,1220.92,632.77Z"/><path class="cls-7" d="M1228.16,707.86s24-4,47.46,1.2a2.18,2.18,0,0,1,1.71,2.34l-.83,8.76L1252,714.05Z"/><path class="cls-5" d="M1183.55,709.56h0a1.55,1.55,0,0,0-1.76,1.31L1179.87,724a1.54,1.54,0,0,0,1.31,1.75h0a1.54,1.54,0,0,0,1.75-1.3l1.93-13.08A1.56,1.56,0,0,0,1183.55,709.56Z"/><path class="cls-5" d="M1187.47,710.14h0a1.55,1.55,0,0,0-1.76,1.3l-2.15,14.63a1.56,1.56,0,0,0,1.31,1.76h0a1.57,1.57,0,0,0,1.76-1.31l2.15-14.63A1.55,1.55,0,0,0,1187.47,710.14Z"/><rect class="cls-5" x="1190.72" y="701.88" width="4.3" height="13.78" rx="1.87" transform="translate(-194.61 694.65) rotate(-30.13)"/><path class="cls-5" d="M1191.39,710.71h0a1.55,1.55,0,0,0-1.75,1.31l-1.73,11.73a1.55,1.55,0,0,0,1.31,1.75h0a1.55,1.55,0,0,0,1.76-1.3l1.72-11.73A1.55,1.55,0,0,0,1191.39,710.71Z"/><path class="cls-5" d="M1182,701.72s-5.54,6.9-4.12,13c.5,2.12,12.09,3.5,13.47,1.49s1.77-10.05,1.77-10.05Z"/><path class="cls-5" d="M1179.65,709h0a1.55,1.55,0,0,0-1.75,1.31l-1.72,11.7a1.55,1.55,0,0,0,1.3,1.75h0a1.54,1.54,0,0,0,1.76-1.3l1.72-11.7A1.56,1.56,0,0,0,1179.65,709Z"/><path class="cls-5" d="M1195,708c7-15.78,18.35-37.91,32.39-53.7a59.48,59.48,0,0,1,6.75-6.86c1.77-1.49,1.15-6.31-1.37-9.36-2.36-2.87-6.39-3.75-8.85-2.36-1.84,1-3.46,2.52-7.15,6.54-12.84,14-24.4,33.71-35.48,60.47Z"/><g class="cls-16"><path class="cls-17" d="M1202.9,673.38a2.17,2.17,0,0,1-1-.24,2.23,2.23,0,0,1-1.07-1.38,4.84,4.84,0,0,1,.57-3.55c1.12-2,3.09-3,4.49-2.29a2.23,2.23,0,0,1,1.07,1.38,4.79,4.79,0,0,1-.57,3.55A4.41,4.41,0,0,1,1202.9,673.38Zm2-6.93a3.74,3.74,0,0,0-2.84,2.13,4,4,0,0,0-.51,3,1.46,1.46,0,0,0,.7.92c1,.53,2.58-.38,3.46-2a4,4,0,0,0,.51-3,1.5,1.5,0,0,0-.7-.93A1.44,1.44,0,0,0,1204.91,666.45Z"/></g><path class="cls-10" d="M1350.74,607.76l1.49,11.12a7.77,7.77,0,0,0,8.73,6.67l13.52-1.81a7.77,7.77,0,0,0,6.67-8.73l-1.06-7.87a7.76,7.76,0,0,1,4.49-8.09c.59-.27,1.18-.55,1.77-.85a7.71,7.71,0,0,1,8.65,1.29l5.29,4.89a7.77,7.77,0,0,0,11-.44l9.25-10a7.76,7.76,0,0,0-.43-11l-5.3-4.89a7.71,7.71,0,0,1-2-8.51q.36-.91.69-1.83a7.77,7.77,0,0,1,7.72-5.12l7.92.42a7.76,7.76,0,0,0,8.17-7.34l.73-13.62a7.77,7.77,0,0,0-7.34-8.18l-11.21-.6a7.79,7.79,0,0,1-6.79-4.87,54.29,54.29,0,0,0-3.39-6.89,7.8,7.8,0,0,1,1-9.24l6-6.49a7.77,7.77,0,0,0-.44-11l-10-9.25a7.77,7.77,0,0,0-11,.44l-8.06,8.73a7.76,7.76,0,0,1-8.06,2.17c-.69-.23-1.39-.44-2.09-.63a7.72,7.72,0,0,1-5.56-6.44l-1.68-12.55a7.77,7.77,0,0,0-8.73-6.67l-13.53,1.81a7.76,7.76,0,0,0-6.67,8.73l1.44,10.78a7.77,7.77,0,0,1-4.27,8l-.1,0a7.73,7.73,0,0,1-8.69-1.26l-7.51-6.93a7.77,7.77,0,0,0-11,.44l-9.25,10a7.77,7.77,0,0,0,.44,11l7.5,6.92a7.72,7.72,0,0,1,2,8.56l0,.12a7.77,7.77,0,0,1-7.64,4.9l-10.85-.59a7.76,7.76,0,0,0-8.17,7.35l-.73,13.63a7.78,7.78,0,0,0,7.35,8.17l12.65.67a7.72,7.72,0,0,1,6.86,5c.25.68.51,1.35.79,2a7.74,7.74,0,0,1-1.52,8.2l-8.06,8.73a7.77,7.77,0,0,0,.43,11l10,9.26a7.77,7.77,0,0,0,11-.44l6-6.49a7.79,7.79,0,0,1,9.13-1.7,54.66,54.66,0,0,0,7.13,2.81A7.81,7.81,0,0,1,1350.74,607.76Zm-10.26-36.13c-11.64-10.75-11.27-35.3-.53-46.94s31.22-9.62,42.84,1.13,8.24,31.55-2.51,43.19S1352.12,582.37,1340.48,571.63Z"/><path class="cls-18" d="M1385.28,765.51a77.89,77.89,0,0,0,4.13,10.21,11.24,11.24,0,0,1-2.35,13.15l-9.27,8.68a11.17,11.17,0,0,0-.52,15.78l13.41,14.32a11.17,11.17,0,0,0,15.79.51l12.45-11.68a11.18,11.18,0,0,1,11.78-2.27c1,.4,2,.77,2.93,1.12a11.13,11.13,0,0,1,7.31,9.81l1.09,18.17a11.17,11.17,0,0,0,11.82,10.47l19.58-1.17a11.18,11.18,0,0,0,10.48-11.83l-1-15.59a11.18,11.18,0,0,1,7-11l.16-.06a11.14,11.14,0,0,1,12.34,2.72l10,10.71a11.17,11.17,0,0,0,15.78.52l14.33-13.41a11.17,11.17,0,0,0,.51-15.79l-10-10.71a11.14,11.14,0,0,1-1.9-12.48l.07-.14a11.17,11.17,0,0,1,11.45-6.23l15.51,2a11.17,11.17,0,0,0,12.48-9.68l2.46-19.46a11.17,11.17,0,0,0-9.68-12.48l-18.06-2.27a11.13,11.13,0,0,1-9.31-7.94c-.29-1-.59-2-.92-3a11.16,11.16,0,0,1,3-11.61l12.46-11.68a11.17,11.17,0,0,0,.52-15.78l-13.4-14.3a11.15,11.15,0,0,0-15.78-.52l-9.27,8.68a11.21,11.21,0,0,1-13.27,1.48,80.21,80.21,0,0,0-9.93-4.8,11.21,11.21,0,0,1-7.08-9.71l-1-16.1a11.17,11.17,0,0,0-11.82-10.47L1450,632.81a11.17,11.17,0,0,0-10.47,11.82l.69,11.38a11.15,11.15,0,0,1-7.28,11.14l-2.61,1a11.1,11.1,0,0,1-12.26-2.74l-7.08-7.56a11.18,11.18,0,0,0-15.78-.51l-14.31,13.4a11.15,11.15,0,0,0-.52,15.78l7.08,7.56a11.09,11.09,0,0,1,1.94,12.42c-.42.85-.81,1.7-1.2,2.56a11.15,11.15,0,0,1-11.59,6.52l-11.31-1.43a11.16,11.16,0,0,0-12.48,9.68l-2.46,19.45a11.15,11.15,0,0,0,9.67,12.47l16,2A11.22,11.22,0,0,1,1385.28,765.51Zm46.16-50.57c16.62-15.57,46.5-20.67,62-4.06s18.66,46,2.06,61.57-51.89,16.34-67.46-.28S1414.82,730.49,1431.44,714.94Z"/><path class="cls-7" d="M1803,690.81a5.91,5.91,0,0,1-5.83-5.11l-1.1-8.18a4.89,4.89,0,0,0-3.38-4c-.48-.15-1-.32-1.45-.49a4.9,4.9,0,0,0-1.61-.27,5,5,0,0,0-3.61,1.58l-6,6.48a5.88,5.88,0,0,1-8.32.34l-7-6.43a5.89,5.89,0,0,1-.33-8.33l5.12-5.55a4.91,4.91,0,0,0,.69-5.7l0-.06a4.85,4.85,0,0,0-5-2.51l-7,1a7,7,0,0,1-.79,0,5.91,5.91,0,0,1-5.83-5.11l-1.27-9.4a5.89,5.89,0,0,1,5.06-6.62l7-.95a4.93,4.93,0,0,0,4.13-3.72v-.07a4.9,4.9,0,0,0-2.17-5.31l-6.41-4a5.88,5.88,0,0,1-1.87-8.12l5-8a5.88,5.88,0,0,1,8.12-1.87l7.46,4.66a4.85,4.85,0,0,0,5.38-.11c.41-.29.84-.57,1.27-.85a4.93,4.93,0,0,0,2.2-4.8l-1.1-8.18a5.91,5.91,0,0,1,5-6.63l9.4-1.26a7,7,0,0,1,.79,0,5.9,5.9,0,0,1,5.83,5.1l.81,6.09a4.93,4.93,0,0,0,4.12,4.2,38.29,38.29,0,0,1,5.26,1.25,4.79,4.79,0,0,0,1.5.23,4.92,4.92,0,0,0,3.61-1.57l5.3-5.73a5.88,5.88,0,0,1,8.32-.34l7,6.43a5.9,5.9,0,0,1,.33,8.33l-3.73,4a4.87,4.87,0,0,0-.62,5.82c.23.4.46.8.67,1.2a5,5,0,0,0,4.94,2.47l5-.67a6.84,6.84,0,0,1,.79-.05,5.92,5.92,0,0,1,5.83,5.11l1.26,9.39a5.89,5.89,0,0,1-5,6.63l-5,.66a4.9,4.9,0,0,0-4.12,3.69c-.1.45-.22.9-.34,1.34a4.88,4.88,0,0,0,2.14,5.45l4.68,2.92a5.91,5.91,0,0,1,1.87,8.12l-5,8a5.87,5.87,0,0,1-8.11,1.87l-6.62-4.13a4.9,4.9,0,0,0-2.59-.74,5,5,0,0,0-2.7.8,38.8,38.8,0,0,1-4.73,2.6,4.92,4.92,0,0,0-2.86,5.14l.82,6.08a5.89,5.89,0,0,1-5.06,6.62l-9.4,1.27A7,7,0,0,1,1803,690.81Zm-13.37-19.08a5.76,5.76,0,0,1,1.93.33c.48.17,1,.33,1.42.47a5.9,5.9,0,0,1,4.06,4.86l1.1,8.18a4.93,4.93,0,0,0,4.86,4.26h0a4.87,4.87,0,0,0,.66,0l9.4-1.26a4.91,4.91,0,0,0,4.22-5.53l-.82-6.08a5.9,5.9,0,0,1,3.42-6.16,36.83,36.83,0,0,0,4.61-2.53,5.92,5.92,0,0,1,3.23-1,5.86,5.86,0,0,1,3.11.89l6.62,4.13a4.89,4.89,0,0,0,6.76-1.56l5-8a4.92,4.92,0,0,0-1.56-6.77L1843,653a5.84,5.84,0,0,1-2.56-6.53c.12-.44.23-.87.33-1.31a5.89,5.89,0,0,1,4.94-4.44l5-.66a4.92,4.92,0,0,0,3.25-1.89,4.84,4.84,0,0,0,1-3.64l-1.26-9.39a4.93,4.93,0,0,0-4.86-4.26,4.87,4.87,0,0,0-.66,0l-5,.67a6.84,6.84,0,0,1-.79,0,5.82,5.82,0,0,1-5.13-3l-.66-1.17a5.82,5.82,0,0,1,.74-7l3.74-4.06a4.82,4.82,0,0,0,1.29-3.52,4.88,4.88,0,0,0-1.57-3.42l-7-6.43a4.89,4.89,0,0,0-3.33-1.3,5,5,0,0,0-3.61,1.58l-5.29,5.73a5.9,5.9,0,0,1-4.33,1.89,5.83,5.83,0,0,1-1.8-.28,38.9,38.9,0,0,0-5.12-1.22,5.88,5.88,0,0,1-4.92-5l-.82-6.09a4.94,4.94,0,0,0-4.86-4.26,4.89,4.89,0,0,0-.66.05l-9.4,1.26a4.92,4.92,0,0,0-4.21,5.53l1.1,8.18a5.92,5.92,0,0,1-2.64,5.76c-.42.26-.84.54-1.25.83a5.82,5.82,0,0,1-3.32,1,5.9,5.9,0,0,1-3.13-.9l-7.46-4.67a5,5,0,0,0-2.6-.74,4.89,4.89,0,0,0-4.17,2.3l-5,8a4.92,4.92,0,0,0,1.56,6.77l6.41,4a5.89,5.89,0,0,1,2.6,6.36V628a5.92,5.92,0,0,1-5,4.46l-7,1a4.89,4.89,0,0,0-3.26,1.88,5,5,0,0,0-1,3.64l1.27,9.4a4.94,4.94,0,0,0,5.52,4.22l7-1a5.35,5.35,0,0,1,.79-.06,5.87,5.87,0,0,1,5.16,3.06l0,.07a5.9,5.9,0,0,1-.83,6.83l-5.13,5.56a4.92,4.92,0,0,0,.29,6.94l7,6.43a4.91,4.91,0,0,0,6.94-.28l6-6.48A5.91,5.91,0,0,1,1789.64,671.73Z"/><path class="cls-7" d="M1804.69,658.66c-10.61,0-22.42-10.44-23.85-21.08-.71-5.28,1.16-10.66,5.28-15.16a24.81,24.81,0,0,1,14.74-7.83,15.27,15.27,0,0,1,2-.13c10.59,0,19.16,10.88,20.53,21a21.17,21.17,0,0,1-3.57,15.12,19,19,0,0,1-13.1,7.9A15.5,15.5,0,0,1,1804.69,658.66Zm-1.8-43.23a15.16,15.16,0,0,0-1.9.13,23.86,23.86,0,0,0-14.15,7.52c-3.92,4.28-5.7,9.39-5,14.37.65,4.8,3.61,9.86,8.13,13.88s9.92,6.36,14.76,6.36a15.26,15.26,0,0,0,1.93-.13,18,18,0,0,0,12.44-7.49,20.21,20.21,0,0,0,3.39-14.43C1821.14,625.88,1813,615.43,1802.89,615.43Z"/><path class="cls-4" d="M1732.29,552.79l22.67-.62a15.7,15.7,0,0,0,15.27-16.11l-.73-27.56a15.71,15.71,0,0,0-16.12-15.28l-16,.43A15.68,15.68,0,0,1,1722,482.91c-.41-1.25-.85-2.5-1.31-3.74a15.59,15.59,0,0,1,4.44-17.12l10.95-9.58a15.69,15.69,0,0,0,1.47-22.16l-18.16-20.75a15.7,15.7,0,0,0-22.15-1.47l-11,9.59a15.59,15.59,0,0,1-17.53,2.13c-1.16-.62-2.33-1.21-3.51-1.79a15.67,15.67,0,0,1-8.64-16.61l2.55-15.83a15.7,15.7,0,0,0-13-18l-27.23-4.39a15.7,15.7,0,0,0-18,13l-3.61,22.4a15.75,15.75,0,0,1-11.25,12.61,109.6,109.6,0,0,0-14.56,5.33,15.78,15.78,0,0,1-18.38-3.92l-11.75-13.43a15.69,15.69,0,0,0-22.16-1.47l-20.74,18.15A15.71,15.71,0,0,0,1497,438l15.82,18.06a15.71,15.71,0,0,1,2.62,16.67c-.6,1.35-1.16,2.7-1.71,4.07a15.62,15.62,0,0,1-14.13,9.8l-25.58.68a15.7,15.7,0,0,0-15.28,16.11l.73,27.58a15.71,15.71,0,0,0,16.12,15.28l22-.59A15.72,15.72,0,0,1,1512.74,556l.07.21a15.66,15.66,0,0,1-4.4,17.2L1492.87,587a15.71,15.71,0,0,0-1.47,22.17l18.17,20.75a15.7,15.7,0,0,0,22.16,1.47l15.52-13.6a15.65,15.65,0,0,1,17.64-2.09l.21.12a15.68,15.68,0,0,1,8.21,16.39l-3.49,21.7a15.7,15.7,0,0,0,13,18l27.24,4.37a15.7,15.7,0,0,0,18-13l4.06-25.27a15.61,15.61,0,0,1,11.59-12.71c1.43-.36,2.84-.74,4.25-1.15a15.67,15.67,0,0,1,16.17,4.81L1679.94,647a15.7,15.7,0,0,0,22.16,1.48l20.75-18.17a15.69,15.69,0,0,0,1.48-22.15l-11.76-13.44a15.76,15.76,0,0,1-1.46-18.72,111.4,111.4,0,0,0,7.19-13.72A15.75,15.75,0,0,1,1732.29,552.79Zm-74.82,12.86c-24.1,21.09-73.36,15.1-94.45-9s-12.65-64.8,11.45-85.86,65.18-9.79,86.27,14.31S1681.57,544.56,1657.47,565.65Z"/><path class="cls-7" d="M1615.06,693.79a15.94,15.94,0,0,1-2.58-.21l-27.25-4.37a16.18,16.18,0,0,1-13.4-18.54l3.5-21.7a15.23,15.23,0,0,0-8-15.9l-.22-.12a15.18,15.18,0,0,0-17.1,2l-15.52,13.6a16.16,16.16,0,0,1-22.82-1.51l-18.18-20.76a16.17,16.17,0,0,1,1.52-22.83l15.53-13.59a15.27,15.27,0,0,0,4.28-16.68l-.08-.21a15.31,15.31,0,0,0-14.7-10l-22,.59a16.08,16.08,0,0,1-16.6-15.74l-.74-27.58a16.17,16.17,0,0,1,15.74-16.6l25.58-.67a15.11,15.11,0,0,0,13.71-9.51c.55-1.37,1.12-2.74,1.72-4.08a15.26,15.26,0,0,0-2.55-16.17l-15.82-18.07a16.19,16.19,0,0,1,1.52-22.82l20.73-18.15a16.17,16.17,0,0,1,22.83,1.51L1556,429.14a15.23,15.23,0,0,0,11.46,5.18,15.59,15.59,0,0,0,6.37-1.37,111.83,111.83,0,0,1,14.63-5.36,15.36,15.36,0,0,0,10.91-12.23L1603,393a16.14,16.14,0,0,1,18.53-13.39l27.23,4.39a16.17,16.17,0,0,1,13.4,18.53l-2.55,15.83a15.11,15.11,0,0,0,8.38,16.11c1.18.58,2.37,1.18,3.53,1.8a14.92,14.92,0,0,0,6.94,1.72,15.32,15.32,0,0,0,10.06-3.79l11-9.59a16.16,16.16,0,0,1,22.81,1.52l18.17,20.74a16.17,16.17,0,0,1-1.52,22.83l-11,9.58a15.19,15.19,0,0,0-4.31,16.6c.46,1.25.9,2.51,1.32,3.76A15.2,15.2,0,0,0,1739.81,510l16-.43a16.08,16.08,0,0,1,16.61,15.73l.73,27.56a16.19,16.19,0,0,1-15.73,16.6l-22.67.61a15.37,15.37,0,0,0-13.57,9.22,112.11,112.11,0,0,1-7.22,13.78,15.24,15.24,0,0,0,1.41,18.16l11.76,13.44a16.16,16.16,0,0,1-1.52,22.82l-20.75,18.17a16.16,16.16,0,0,1-10.64,4h0a16.19,16.19,0,0,1-12.18-5.52l-15.81-18.08a15.31,15.31,0,0,0-11.51-5.26,15.11,15.11,0,0,0-4.17.59c-1.41.42-2.84.81-4.26,1.16a15.11,15.11,0,0,0-11.24,12.33L1631,680.17A16.11,16.11,0,0,1,1615.06,693.79Zm-55-63.53a16.12,16.12,0,0,1,7.51,1.86l.21.11a16.2,16.2,0,0,1,8.46,16.89l-3.5,21.7a15.23,15.23,0,0,0,12.62,17.46l27.25,4.37A15.23,15.23,0,0,0,1630.07,680l4.06-25.27a16.06,16.06,0,0,1,11.95-13.09c1.41-.36,2.83-.74,4.23-1.15a15.82,15.82,0,0,1,4.43-.64,16.25,16.25,0,0,1,12.22,5.59l15.81,18.07a15.25,15.25,0,0,0,11.47,5.21h0a15.23,15.23,0,0,0,10-3.77L1725,646.8a15.22,15.22,0,0,0,1.43-21.49l-11.76-13.44a16.19,16.19,0,0,1-1.51-19.28,107.55,107.55,0,0,0,7.16-13.66,16.34,16.34,0,0,1,14.42-9.78l22.67-.62a15.24,15.24,0,0,0,14.81-15.62l-.74-27.56a15.13,15.13,0,0,0-15.63-14.82l-16,.43a16.14,16.14,0,0,1-15.78-11.07c-.41-1.23-.85-2.49-1.31-3.72a16.15,16.15,0,0,1,4.57-17.64l11-9.58a15.23,15.23,0,0,0,1.43-21.5l-18.17-20.74a15.22,15.22,0,0,0-21.48-1.43l-11,9.59a16.25,16.25,0,0,1-10.68,4,15.78,15.78,0,0,1-7.38-1.83c-1.15-.61-2.33-1.21-3.5-1.78a16.05,16.05,0,0,1-8.9-17.11l2.55-15.83a15.21,15.21,0,0,0-12.62-17.45l-27.23-4.39a15.43,15.43,0,0,0-2.44-.19,15.14,15.14,0,0,0-15,12.8l-3.62,22.4a16.31,16.31,0,0,1-11.58,13,109.32,109.32,0,0,0-14.5,5.31,16.5,16.5,0,0,1-6.76,1.45,16.14,16.14,0,0,1-12.17-5.5l-11.75-13.43a15.21,15.21,0,0,0-21.49-1.42l-20.74,18.15a15.25,15.25,0,0,0-1.43,21.49l15.82,18.07a16.2,16.2,0,0,1,2.7,17.17c-.59,1.33-1.16,2.69-1.7,4a16.07,16.07,0,0,1-14.56,10.1l-25.58.68a15.22,15.22,0,0,0-14.82,15.63l.73,27.58a15.14,15.14,0,0,0,15.63,14.81l22-.58a16.26,16.26,0,0,1,15.62,10.61l.07.21a16.21,16.21,0,0,1-4.53,17.72l-15.54,13.59a15.23,15.23,0,0,0-1.43,21.5l18.18,20.76a15.24,15.24,0,0,0,21.49,1.42l15.52-13.6A16.15,16.15,0,0,1,1560.08,630.26Z"/><path class="cls-5" d="M1582.12,503.93c-1.07,1.91-11.83,18.57-9.58,34.87l11.71-4.23,5.35-22Z"/><path class="cls-10" d="M1628.86,497.11s-7.19-12.9-24.7-9.34S1577.1,516.4,1581.85,566c0,0,27.81-11.06,64-2.14C1645.83,563.89,1639.87,515.82,1628.86,497.11Z"/><path class="cls-10" d="M1642.22,491.89l-12.31,12.29s-31.55,8.52-40.31,8.42a14.07,14.07,0,0,1-12.21-6.51,46.65,46.65,0,0,1,22.36-17,45.56,45.56,0,0,1,4.41-1.32,46.51,46.51,0,0,1,7.82-1.13C1627.47,485.72,1642.22,491.89,1642.22,491.89Z"/><path class="cls-6" d="M1642.22,491.89c2,2.14-1.07,4.48-4.47,7.87s-6.91,5.37-7.84,4.42,1.07-4.47,4.46-7.87S1641.31,490.91,1642.22,491.89Z"/><path class="cls-5" d="M1631.55,504.23s-.19-2.45,2.9-5.59a18.77,18.77,0,0,1,5.78-3.8,1.8,1.8,0,0,1,2.39,1l1,2.54-4.59,3Z"/><path class="cls-14" d="M1609.8,549.73s38-20.57,51.57,1.87c10.08,16.62-5.07,32.09-61.23,30.52,0,0-5.55-2.6-4.2-16.09C1596.48,560.69,1609.8,549.73,1609.8,549.73Z"/><path class="cls-14" d="M1609.8,549.73S1559.24,529,1549.23,542c-11.5,14.88-.47,40.15,52.83,31.11l6.49-7.05Z"/><path class="cls-9" d="M1600.08,582.2c-6.24-4.45-4.26-16.07-4.24-16.19V566l.05,0,38.39-14,.07.2-38.32,14c-.15.91-1.74,11.71,4.16,15.92Z"/><path class="cls-6" d="M1595.62,569.74s-9.32.38-13.7,2.53-2,7.38,6.85,7.24,8.21-1.46,8.21-1.46S1595.29,573.45,1595.62,569.74Z"/><path class="cls-5" d="M1607.55,550.72a12.33,12.33,0,0,1-7.68-2.33,11.06,11.06,0,0,1-4-10.7l3.71-2.16c.19-1,7.36,2.76,7.34,2.76s3.42,1,15.17-5c8.18-4.18,12.3-10.11,12.6-18.13.23-6-2.47-9.45-3.1-10.92-.09-.2,4-4.24,3.83-4.65l3-1.54c-.1-.35,2.91-1.54,2.87-1.63l2.33,2a39,39,0,0,1,3.29,17.22c-.33,8.76-4,20.86-19.31,28.71C1619.21,548.6,1612.63,550.72,1607.55,550.72Z"/><path class="cls-6" d="M1605.05,551.21h-32.76a1.57,1.57,0,0,1-1.51-1.08L1564,529.8a1.58,1.58,0,0,1,1.51-2.08H1597a3.33,3.33,0,0,1,3.16,2.26l6.41,19.15A1.58,1.58,0,0,1,1605.05,551.21Z"/><path class="cls-6" d="M1603,551.21h-32.77a1.59,1.59,0,0,1-1.51-1.08l-6.81-20.33a1.58,1.58,0,0,1,1.51-2.08h31.51a3.34,3.34,0,0,1,3.17,2.26l6.41,19.15A1.58,1.58,0,0,1,1603,551.21Z"/><path class="cls-19" d="M1580,538.8c0-.77.89-1.09,1.67-1.09a2.23,2.23,0,0,1,2,1.93c0,1.17-.92,1.32-1.7,1.32A2.57,2.57,0,0,1,1580,538.8Z"/><path class="cls-6" d="M1570.22,548.34h45.12a1.61,1.61,0,0,1,1.61,1.61v.44a.82.82,0,0,1-.82.82h-45.91a0,0,0,0,1,0,0v-2.87A0,0,0,0,1,1570.22,548.34Z"/><path class="cls-7" d="M1600.67,538c0-.06-1.63-6.08-2.67-8a4.39,4.39,0,0,0-2.3-2.21l.06-.21a4.63,4.63,0,0,1,2.43,2.32c1,1.9,2.62,7.76,2.68,8Z"/><path class="cls-7" d="M1605.51,548.45c-1.21,0-1.52-.54-1.53-.57l-2.56-7.64.2-.07,2.56,7.63h0s.27.43,1.33.43Z"/><path class="cls-17" d="M1637,533.09a1.07,1.07,0,0,1-.53-.13c-.8-.47-.78-2,0-3.43a3.82,3.82,0,0,1,2-1.84,1.12,1.12,0,0,1,.89.09c.8.46.78,2,0,3.42h0a3.8,3.8,0,0,1-2,1.84A1.64,1.64,0,0,1,1637,533.09Zm1.91-5a1.18,1.18,0,0,0-.25,0,3.45,3.45,0,0,0-1.77,1.64c-.69,1.21-.78,2.51-.2,2.85a.72.72,0,0,0,.57,0A3.43,3.43,0,0,0,1639,531h0c.69-1.21.78-2.51.2-2.85A.62.62,0,0,0,1638.91,528.06Z"/><path class="cls-5" d="M1612.25,486.61c-2.15-.06-3.79-.28-5-1.74l-3.84-4.51-1.11-1.31-6.56-7.72,3.44,9,2.07,5.41.66,1.72c.44,1.16-.15,1.7-.56,3.06-.17.56-1.3,3.95,1.65,4,3.67,0,8.31-4.24,9.33-7.92Z"/><path class="cls-6" d="M1604.46,477.47s7.22-6.94,3.06-12.8-5.21,9.4-5.21,9.4l1.16,3.53Z"/><path class="cls-6" d="M1603.36,480.21l0,.15c.67,3.05-2.13,5.42-2.13,5.42h0l-2.07-5.41c.88-.66,2.18-1.46,3.12-1.31A1.35,1.35,0,0,1,1603.36,480.21Z"/><path class="cls-5" d="M1588.07,476.44c-1.63-5.43.66-10.93,5.12-12.29s9.38,1.92,11,7.35-.66,10.92-5.12,12.29S1589.7,481.86,1588.07,476.44Z"/><path class="cls-6" d="M1602.68,470.71s-2.3,1.68-4.23.26-3.29-2.75-7.61-.58-9,1.2-9.91-1.25,1.18-4.32,3.89-4.2-.57-1.36,1.31-3.93,6.67.08,9-1.2,10.82-2.38,12.34,4.86Z"/><path class="cls-5" d="M1604.48,472.16a1.73,1.73,0,0,1-2.37.65,1.77,1.77,0,0,1-.37-2.46,1.73,1.73,0,0,1,2.37-.64A1.76,1.76,0,0,1,1604.48,472.16Z"/><path class="cls-12" d="M1585.69,468.29a1.75,1.75,0,0,1-.46-.05c-1-.25-1.24-.76-1.17-1.15s.63-.89,1.49-.8a3.46,3.46,0,0,0,2-.3l.17.26a3.63,3.63,0,0,1-2.2.36c-.64-.07-1.1.23-1.15.53s.3.63.94.79c1.66.42,4.53-2.16,4.56-2.18l.21.23C1590,466.08,1587.51,468.29,1585.69,468.29Z"/><path class="cls-12" d="M1593.15,462.23a6.93,6.93,0,0,1-3.46-.91l.23-.22a6.45,6.45,0,0,0,4.92.52,19.81,19.81,0,0,0,2-1c1.27-.67,2.38-1.25,3.64-1l-.06.31c-1.16-.22-2.21.34-3.44,1a17.42,17.42,0,0,1-2,1A4.77,4.77,0,0,1,1593.15,462.23Z"/><path class="cls-12" d="M1605.33,464.29a2.59,2.59,0,0,1-1.54-1.18c-.17-.33,0-.49.08-.54.64-.4,1.55.85,1.73,1.1l0,.05c.1.38-.06.51-.17.55Zm-1.18-1.48a.2.2,0,0,0-.11,0s0,.19.32.51a1.78,1.78,0,0,0,1,.62.31.31,0,0,0,0-.14C1605,463.37,1604.46,462.81,1604.15,462.81Z"/><path class="cls-13" d="M1594.52,474.23a.16.16,0,0,1-.13-.08.18.18,0,0,1,.07-.24,1.85,1.85,0,0,1,2.25.21.18.18,0,0,1,0,.25.19.19,0,0,1-.24,0,2.93,2.93,0,0,0-1.88-.18A.12.12,0,0,1,1594.52,474.23Z"/><path class="cls-13" d="M1596.1,475.94c.06.41-.12.78-.42.82s-.58-.24-.64-.65a.67.67,0,0,1,.41-.82C1595.74,475.24,1596,475.54,1596.1,475.94Z"/><path class="cls-13" d="M1588.55,476.4a.12.12,0,0,1-.12,0,.22.22,0,0,1,0-.24,1.2,1.2,0,0,1,1.67-.54.18.18,0,0,1,.1.21c0,.09-.08.12-.16.11a1.76,1.76,0,0,0-1.38.44A.19.19,0,0,1,1588.55,476.4Z"/><path class="cls-13" d="M1590.69,477.36a.68.68,0,0,1-.07.92.66.66,0,0,1-.84-.35c-.22-.36-.19-.77.07-.92S1590.48,477,1590.69,477.36Z"/><path class="cls-9" d="M1595.58,481.68a5.31,5.31,0,0,1-1-.1.12.12,0,0,1,.06-.24,3.88,3.88,0,0,0,4.27-1.7.12.12,0,0,1,.16-.05.12.12,0,0,1,0,.16A3.82,3.82,0,0,1,1595.58,481.68Z"/><path class="cls-9" d="M1599.32,480.18a.12.12,0,0,1-.11-.09,1.39,1.39,0,0,0-.68-.68l0,0a.12.12,0,1,1,.14-.2,1.64,1.64,0,0,1,.81.83.12.12,0,0,1-.08.15Z"/><rect class="cls-6" x="1581.96" y="508.38" width="6.19" height="0.53" transform="translate(606.58 1855.38) rotate(-71.79)"/><path class="cls-12" d="M1589.73,483.17a2.11,2.11,0,0,1-.35,0,5.36,5.36,0,0,1-3.52-2.86c-1.52-2.64-1.59-6-.15-7.38a2.27,2.27,0,0,1,2-.65,5.34,5.34,0,0,1,3.52,2.86h0c1.53,2.64,1.59,5.95.15,7.38A2.26,2.26,0,0,1,1589.73,483.17Zm-2.39-10.58a1.9,1.9,0,0,0-1.38.57c-1.33,1.32-1.24,4.44.21,6.95a5,5,0,0,0,3.26,2.69,1.94,1.94,0,0,0,1.67-.56c1.34-1.32,1.24-4.43-.21-6.94a5,5,0,0,0-3.26-2.69Z"/><g class="cls-15"><path class="cls-12" d="M1599.79,471.24c1.23,2.63.89,5.82-.77,7.14s-4,.25-5.23-2.38-.89-5.81.76-7.13S1598.55,468.62,1599.79,471.24Z"/></g><g class="cls-15"><path class="cls-12" d="M1591.32,475.33c1.24,2.64,1.08,5.84-.37,7.15s-3.62.24-4.86-2.4-1.07-5.84.37-7.15S1590.08,472.7,1591.32,475.33Z"/></g><path class="cls-12" d="M1597.17,479.08a3.53,3.53,0,0,1-.72-.08,5.28,5.28,0,0,1-3.31-3.07c-1.34-2.8-.93-6.24.9-7.67a2.9,2.9,0,0,1,2.51-.55,5.27,5.27,0,0,1,3.32,3.07h0c1.33,2.8.93,6.24-.9,7.67A2.88,2.88,0,0,1,1597.17,479.08Zm-1.33-11.1a2.52,2.52,0,0,0-1.58.56c-1.71,1.33-2.07,4.58-.8,7.24a5,5,0,0,0,3.07,2.87,2.57,2.57,0,0,0,2.22-.48c1.7-1.34,2.06-4.58.79-7.24h0a5,5,0,0,0-3.07-2.87A2.72,2.72,0,0,0,1595.84,468Z"/><path class="cls-12" d="M1591.11,476.46a.37.37,0,0,1-.2-.07.34.34,0,0,1-.06-.47,3.55,3.55,0,0,1,2.73-1.19h0a.32.32,0,0,1,.33.32.32.32,0,0,1-.32.34,2.88,2.88,0,0,0-2.22.94A.37.37,0,0,1,1591.11,476.46Z"/><path class="cls-6" d="M1500.57,845.83s.16,4.49,3.21,5.73,11.87,2.3,8.6,5.22c-1.87,1.68-10.78.69-13.29.71s-4.86,1.14-6.75-.52c-2.07-1.84-.1-11.06-.1-11.06a10,10,0,0,0,4.13,1A8,8,0,0,0,1500.57,845.83Z"/><path class="cls-6" d="M1527.4,843.56s.2,4.49,3.27,5.7,11.89,2.17,8.66,5.13c-1.86,1.69-10.78.8-13.29.85s-4.85,1.19-6.75-.45c-2.09-1.81-.22-11.06-.22-11.06a10.07,10.07,0,0,0,4.14,1A7.9,7.9,0,0,0,1527.4,843.56Z"/><path class="cls-14" d="M1525.31,847.25a9.77,9.77,0,0,0,8.76-10.27c-1.69-29.47-4.26-44.33-14.06-56.71a63.36,63.36,0,0,0-26.7-19.76,71,71,0,0,0-28.28-5c-17.21.28-25.09,3.43-25.09,3.43-10.87,27.71,9.54,29.75,24.5,29.37l1.49,0c9.06-.1,25.28,1,32,9.51,5.34,6.74,9.42,16.45,12.74,42.06a9.13,9.13,0,0,0,10,7.92Z"/><path class="cls-14" d="M1500.59,850.63a9.76,9.76,0,0,0,8.76-10.27c-1.68-29.47-4.25-44.33-14.06-56.71-6.3-8-15.31-13.65-26.77-16.91a97.94,97.94,0,0,0-28.23-3.25c-17.21.27-25.07-1.22-25.07-1.22-11.31,35.27,38.88,24.22,53.17,37.82,6.23,5.93,14.26,17.48,17.59,43.09a9.13,9.13,0,0,0,10,7.92Z"/><path class="cls-5" d="M1468.16,712.88c1.34,1.76,14.42,17,14.39,33.66l-12.32-2.64-8.38-21.3Z"/><path class="cls-20" d="M1420.32,712.44s5.45-13.93,23.51-12.76,30.66,8.45,32.71,58.91c0,0-24.92-1.71-53.62,14.75-4.83,2.77-12.32,2.11-12.56-3.45C1409.87,758.8,1412.39,737.68,1420.32,712.44Z"/><path class="cls-20" d="M1404.43,714.46l15.81,5.22s32.83,4.22,41.61,2.92a14.27,14.27,0,0,0,11.36-8.21,47.39,47.39,0,0,0-24.77-14,44,44,0,0,0-4.61-.71,41,41,0,0,0-7.89-.29C1410.21,701.79,1404.43,714.46,1404.43,714.46Z"/><path class="cls-6" d="M1404.43,714.46c-.88,1.89,2.82,3.71,7.36,5.45s8.6,2.13,9.08.86-2.83-3.7-7.37-5.44S1405,713.24,1404.43,714.46Z"/><path class="cls-5" d="M1449.07,763.31a12.59,12.59,0,0,0,7.38-3.39,11.21,11.21,0,0,0,2.59-11.3l-4-1.66c-.32-1-7,3.79-7,3.78s-3.3,1.47-15.91-3c-8.78-3.07-13.73-8.45-15.13-16.46-1.06-6,.94-9.11,1.37-10.67.06-.21-1-2.85-5.74-4.46-5.06-1.74-6.92-.45-6.92-.45a39.5,39.5,0,0,0-.94,17.73c1.54,8.75,6.82,20.38,23.32,26.15C1437.08,762.78,1444,764,1449.07,763.31Z"/><path class="cls-6" d="M1451.83,764.76l33.17-.53a1.61,1.61,0,0,0,1.52-1.12l6.57-20.7a1.61,1.61,0,0,0-1.57-2.08l-31.9.5a3.38,3.38,0,0,0-3.17,2.35l-6.19,19.49A1.61,1.61,0,0,0,1451.83,764.76Z"/><path class="cls-6" d="M1453.91,764.72l33.18-.52a1.61,1.61,0,0,0,1.51-1.12l6.57-20.7a1.61,1.61,0,0,0-1.57-2.08l-31.9.5a3.37,3.37,0,0,0-3.17,2.35l-6.19,19.49A1.61,1.61,0,0,0,1453.91,764.72Z"/><path class="cls-19" d="M1477,751.79c0-.79-.92-1.09-1.71-1.08a2.24,2.24,0,0,0-2,2c0,1.18,1,1.32,1.74,1.31A2.63,2.63,0,0,0,1477,751.79Z"/><path class="cls-6" d="M1441.66,762l45.4-.72,0,2.91-46.34.73a1,1,0,0,1-1-1h0A1.91,1.91,0,0,1,1441.66,762Z"/><path class="cls-7" d="M1456.06,751.3l-.21,0c.06-.25,1.55-6.22,2.59-8.15a4.64,4.64,0,0,1,2.42-2.39l.06.21a4.46,4.46,0,0,0-2.29,2.28C1457.6,745.11,1456.07,751.24,1456.06,751.3Z"/><path class="cls-7" d="M1451.32,762v-.21c1.08,0,1.35-.47,1.35-.48l2.45-7.74.21.06-2.46,7.76S1452.55,761.94,1451.32,762Z"/><g class="cls-15"><path class="cls-17" d="M1416.91,749.67h-.19a3.86,3.86,0,0,1-2.28-1.57c-1-1.35-1.26-2.85-.52-3.43a1.17,1.17,0,0,1,.88-.21,3.86,3.86,0,0,1,2.28,1.57c1,1.35,1.26,2.85.52,3.43A1.06,1.06,0,0,1,1416.91,749.67Zm-2.3-4.8a.67.67,0,0,0-.43.13c-.53.42-.26,1.71.6,2.82h0a3.5,3.5,0,0,0,2,1.41.74.74,0,0,0,.57-.12c.53-.42.26-1.71-.6-2.82a3.5,3.5,0,0,0-2-1.41Z"/></g><path class="cls-5" d="M1440.6,697.21l2.78-4.77.8-1.38,4.76-8.16-1.66,8.82-1,5.3-.32,1.67c-.21,1.14.42,1.54,1,2.71.25.48,1.86,3.38-.85,3.9-3.38.65-8.64-2.72-10.2-5.91C1436,699.39,1439.7,698.75,1440.6,697.21Z"/><path class="cls-21" d="M1456.7,681.21a11.81,11.81,0,0,1-1.1,4.8c-1.17,2.54-2.37-4.65-2.37-4.65Z"/><path class="cls-5" d="M1455.74,686.85c.52-5.31-2.64-10-7-10.39s-8.39,3.54-8.91,8.85,2.65,10,7,10.39S1455.23,692.16,1455.74,686.85Z"/><path class="cls-6" d="M1440.21,682.57l3.87.48a2.85,2.85,0,0,0,2.33-.77c1-1,2.13-1.44,5.63-.49,4.42,1.2,8-.79,9-3s-.87-4.42-3.38-3.8-.9-1.94-3-2.74c-3.91-1.48-5.38,1.45-8.66.59-4.29-1.13-12.8.37-10.88,8.83Z"/><path class="cls-13" d="M1448.26,685.78a.18.18,0,0,0,.11-.1.17.17,0,0,0-.11-.21,1.76,1.76,0,0,0-2.06.62.16.16,0,0,0,0,.23.18.18,0,0,0,.23,0,2.77,2.77,0,0,1,1.71-.52Z"/><path class="cls-13" d="M1447.11,687.65c0,.39.26.7.54.68s.49-.33.48-.72-.26-.69-.54-.68S1447.09,687.27,1447.11,687.65Z"/><path class="cls-13" d="M1454.23,686.66a.11.11,0,0,0,.1-.06.18.18,0,0,0,0-.23,1.13,1.13,0,0,0-1.65-.18.2.2,0,0,0-.06.22.12.12,0,0,0,.17.06,1.72,1.72,0,0,1,1.38.16A.09.09,0,0,0,1454.23,686.66Z"/><path class="cls-13" d="M1452.41,688a.64.64,0,0,0,.24.84.64.64,0,0,0,.72-.49c.13-.36,0-.74-.24-.83S1452.55,687.59,1452.41,688Z"/><path class="cls-21" d="M1435.15,681.66s1.31,6.24,4.91,7.51c0,0-2-5,4.91-6.15C1445,683,1439.39,680.77,1435.15,681.66Z"/><path class="cls-5" d="M1439.65,686a1.57,1.57,0,1,0-.11-2.34A1.66,1.66,0,0,0,1439.65,686Z"/><path class="cls-21" d="M1445,683s-1.59,4.61-.84,5.73,7,3,10.26,2.51h0a6.35,6.35,0,0,1-6.53,5,9.23,9.23,0,0,1-3-.71h0c-2-.84-3.81-2.17-4.22-4.29-.13-.64,1.46-4.07,1.46-4.07s.78-2.06-.2-3.44A6.16,6.16,0,0,1,1445,683Z"/><path class="cls-12" d="M1452.43,692.6a16.27,16.27,0,0,1-5.19-.78,2.53,2.53,0,0,0,2.63,2.69C1451.5,694.58,1452.43,692.6,1452.43,692.6Z"/><path class="cls-6" d="M1457.34,674.51a1.22,1.22,0,0,1-1.1-1.33l.21,0a1,1,0,0,0,.94,1.09Z"/><path class="cls-12" d="M1453.59,680.83v-.11c.06,0,5.13-.32,5.89-2.72a1.61,1.61,0,0,0,0-1.48c-.37-.52-1.28-.52-2.07-.51H1457v-.11h.36c.82,0,1.75,0,2.16.55a1.77,1.77,0,0,1,0,1.59c-.33,1-1.47,1.83-3.3,2.33A14.71,14.71,0,0,1,1453.59,680.83Z"/><path class="cls-12" d="M1447.46,674a9.93,9.93,0,0,1-3.49-.67l0-.1a9,9,0,0,0,5.39.43,5.8,5.8,0,0,0,2-.85l.07.09A7,7,0,0,1,1447.46,674Z"/><path class="cls-9" d="M1508.23,823.79h-.2a79.66,79.66,0,0,0-3.91-23.4,51.48,51.48,0,0,0-9.83-17.85,37.23,37.23,0,0,0-19.45-11.81l.05-.19a37.43,37.43,0,0,1,19.55,11.88,51.58,51.58,0,0,1,9.87,17.91A79.92,79.92,0,0,1,1508.23,823.79Z"/><path class="cls-7" d="M1350.66,567.32l-34.57-34.57a37.62,37.62,0,0,0-26.77-11.09h-43.25V521h43.25a38.32,38.32,0,0,1,27.27,11.29l34.58,34.58Z"/><path class="cls-7" d="M1243,521.48c0-1.48,1.66-2.58,3.11-2.85,2-.35,2.67,1.2,2.67,2.67a3,3,0,0,1-2.67,3.07A3.27,3.27,0,0,1,1243,521.48Z"/><path class="cls-7" d="M1348,567.07c0-1.47,1.67-2.58,3.12-2.84,1.95-.36,2.67,1.19,2.67,2.67a3,3,0,0,1-2.67,3.07A3.28,3.28,0,0,1,1348,567.07Z"/><path class="cls-7" d="M1359.06,527.27l-.63-.32,20.21-39.22a27,27,0,0,1,10.1-10.89,38.56,38.56,0,0,1,19.8-5.47h43.25v.71h-43.25a37.78,37.78,0,0,0-19.43,5.37,26.41,26.41,0,0,0-9.84,10.61Z"/><path class="cls-7" d="M1454.91,471.9c0-1.48-1.67-2.58-3.12-2.85-2-.35-2.67,1.2-2.67,2.67a3,3,0,0,0,2.67,3.07A3.28,3.28,0,0,0,1454.91,471.9Z"/><path class="cls-7" d="M1361.64,527.11c0-1.47-1.67-2.58-3.12-2.84-2-.36-2.67,1.19-2.67,2.67a3,3,0,0,0,2.67,3.07A3.28,3.28,0,0,0,1361.64,527.11Z"/><rect class="cls-4" x="1196.97" y="455.76" width="85.19" height="52.59" rx="10.82"/><path class="cls-10" d="M1243.28,490.79l2.81-6.63a1.55,1.55,0,0,1,2.34-.65l3.76,2.73a1.55,1.55,0,0,0,2.39-.79l2.17-7a1.55,1.55,0,0,1,2-1l2.07.73a1.57,1.57,0,0,0,1.76-.54l.33-.45a1.55,1.55,0,0,1,2.79.92V491.4a1.55,1.55,0,0,1-1.55,1.55H1244.7A1.55,1.55,0,0,1,1243.28,490.79Z"/><path class="cls-19" d="M1266.92,497.32h-.05l-58-.95a2.9,2.9,0,0,1-2.85-2.71l-1.18-16.83a2.92,2.92,0,0,1,.76-2.17,2.87,2.87,0,0,1,2.09-.94l59.14-1.12a2.92,2.92,0,0,1,3,2.91v18.9a2.92,2.92,0,0,1-2.91,2.91Zm0-24.16h-.05l-59.14,1.12a2.28,2.28,0,0,0-1.68.76,2.3,2.3,0,0,0-.61,1.75l1.17,16.83a2.33,2.33,0,0,0,2.3,2.18l58,1a2.36,2.36,0,0,0,2.38-2.35v-18.9a2.34,2.34,0,0,0-2.34-2.35Z"/><path class="cls-19" d="M1233.64,486.62h-21a1.43,1.43,0,0,1-1.23-.94c-.13-.94.77-1.2,1.23-1.2l21,.46a.85.85,0,0,1,.84.84h0A.85.85,0,0,1,1233.64,486.62Z"/><path class="cls-19" d="M1228.2,482.68h-15.81a1.08,1.08,0,0,1-.93-.75.86.86,0,0,1,.93-1l15.81.37a.66.66,0,0,1,.63.68h0A.65.65,0,0,1,1228.2,482.68Z"/><path class="cls-19" d="M1228.2,490.58h-15.81a1.08,1.08,0,0,1-.93-.75.86.86,0,0,1,.93-1l15.81.38a.65.65,0,0,1,.63.67h0A.65.65,0,0,1,1228.2,490.58Z"/><path class="cls-19" d="M1228,463.88h-21a1.43,1.43,0,0,1-1.23-.94c-.13-.94.77-1.2,1.23-1.2l21,.46a.84.84,0,0,1,.83.84h0A.84.84,0,0,1,1228,463.88Z"/><path class="cls-19" d="M1222.56,467.84h-15.82a1.1,1.1,0,0,1-.93-.75.87.87,0,0,1,.93-1l15.82.38a.66.66,0,0,1,.63.67h0A.66.66,0,0,1,1222.56,467.84Z"/><rect class="cls-4" x="1733.7" y="710.1" width="85.2" height="52.59" rx="10.82"/><path class="cls-10" d="M1780,745.13l2.82-6.63a1.55,1.55,0,0,1,2.34-.65l3.76,2.73a1.55,1.55,0,0,0,2.39-.8l2.17-7a1.54,1.54,0,0,1,2-1l2.07.72a1.54,1.54,0,0,0,1.76-.54l.33-.44a1.55,1.55,0,0,1,2.79.92v13.27a1.54,1.54,0,0,1-1.55,1.55h-19.44A1.55,1.55,0,0,1,1780,745.13Z"/><path class="cls-19" d="M1803.66,751.66h-.05l-58-1a2.87,2.87,0,0,1-2.85-2.7l-1.18-16.84a2.92,2.92,0,0,1,2.85-3.11l59.14-1.12a2.92,2.92,0,0,1,3,2.91v18.91a2.92,2.92,0,0,1-2.9,2.91Zm0-24.16h-.05l-59.14,1.12a2.33,2.33,0,0,0-2.29,2.5l1.17,16.84a2.34,2.34,0,0,0,2.3,2.18l58,1a2.34,2.34,0,0,0,2.38-2.34V729.84a2.34,2.34,0,0,0-2.34-2.34Z"/><path class="cls-19" d="M1770.38,741h-21a1.43,1.43,0,0,1-1.23-.93c-.13-.94.77-1.21,1.23-1.21l21,.47a.84.84,0,0,1,.84.84h0A.84.84,0,0,1,1770.38,741Z"/><path class="cls-19" d="M1764.94,737h-15.82a1.09,1.09,0,0,1-.92-.76.85.85,0,0,1,.92-1l15.82.37a.66.66,0,0,1,.63.67h0A.67.67,0,0,1,1764.94,737Z"/><path class="cls-19" d="M1764.94,744.92h-15.82a1.09,1.09,0,0,1-.92-.75.86.86,0,0,1,.92-1l15.82.37a.67.67,0,0,1,.63.68h0A.66.66,0,0,1,1764.94,744.92Z"/><path class="cls-19" d="M1764.73,718.22h-20.94a1.47,1.47,0,0,1-1.24-.94c-.12-.94.77-1.21,1.23-1.21l21,.47a.84.84,0,0,1,.84.84h0A.84.84,0,0,1,1764.73,718.22Z"/><path class="cls-19" d="M1759.29,722.18h-15.81a1.1,1.1,0,0,1-.93-.75.86.86,0,0,1,.93-1l15.81.37a.67.67,0,0,1,.64.68h0A.66.66,0,0,1,1759.29,722.18Z"/><rect class="cls-4" x="1401.45" y="436.37" width="45.4" height="28.03" rx="5.76"/><path class="cls-19" d="M1437.67,451.52h-28.21a1.93,1.93,0,0,1-1.66-1.26c-.17-1.27,1-1.63,1.66-1.63l28.21.63a1.14,1.14,0,0,1,1.13,1.13h0A1.14,1.14,0,0,1,1437.67,451.52Z"/><path class="cls-19" d="M1430.34,446.22h-21.29a1.46,1.46,0,0,1-1.25-1,1.16,1.16,0,0,1,1.25-1.3l21.29.5a.88.88,0,0,1,.85.91h0A.88.88,0,0,1,1430.34,446.22Z"/><path class="cls-19" d="M1430.34,456.86h-21.29a1.46,1.46,0,0,1-1.25-1,1.16,1.16,0,0,1,1.25-1.3l21.29.5a.88.88,0,0,1,.85.91h0A.88.88,0,0,1,1430.34,456.86Z"/><rect class="cls-4" x="1800.43" y="527.11" width="45.41" height="28.03" rx="5.76"/><path class="cls-19" d="M1836.65,542.26h-28.21a2,2,0,0,1-1.66-1.26c-.16-1.27,1-1.63,1.66-1.63l28.21.63a1.14,1.14,0,0,1,1.13,1.13h0A1.14,1.14,0,0,1,1836.65,542.26Z"/><path class="cls-19" d="M1829.32,537H1808a1.46,1.46,0,0,1-1.25-1,1.16,1.16,0,0,1,1.25-1.3l21.29.5a.89.89,0,0,1,.86.91h0A.89.89,0,0,1,1829.32,537Z"/><path class="cls-19" d="M1829.32,547.6H1808a1.46,1.46,0,0,1-1.25-1,1.16,1.16,0,0,1,1.25-1.3l21.29.5a.89.89,0,0,1,.86.91h0A.89.89,0,0,1,1829.32,547.6Z"/><path class="cls-4" d="M1198.84,551h47.75a8.12,8.12,0,0,1,8.12,8.12v23.26a8.13,8.13,0,0,1-8.12,8.13h-47.75a8.12,8.12,0,0,1-8.12-8.12V559.08A8.13,8.13,0,0,1,1198.84,551Z"/><path class="cls-19" d="M1241.77,572.31H1202a2.73,2.73,0,0,1-2.34-1.78c-.24-1.78,1.46-2.29,2.34-2.29l39.76.89a1.59,1.59,0,0,1,1.59,1.59h0A1.6,1.6,0,0,1,1241.77,572.31Z"/><path class="cls-19" d="M1231.44,564.84h-30a2.06,2.06,0,0,1-1.76-1.43,1.64,1.64,0,0,1,1.76-1.84l30,.71a1.25,1.25,0,0,1,1.2,1.28h0A1.24,1.24,0,0,1,1231.44,564.84Z"/><path class="cls-19" d="M1231.44,579.84h-30a2.07,2.07,0,0,1-1.76-1.43,1.64,1.64,0,0,1,1.76-1.84l30,.71a1.25,1.25,0,0,1,1.2,1.28h0A1.25,1.25,0,0,1,1231.44,579.84Z"/><path class="cls-5" d="M1624.55,721.55h0a1.45,1.45,0,0,0-1,1.79l3.56,11.78a1.46,1.46,0,0,0,1.8,1h0a1.45,1.45,0,0,0,1-1.8l-3.56-11.78A1.43,1.43,0,0,0,1624.55,721.55Z"/><path class="cls-5" d="M1628.08,720.48h0a1.45,1.45,0,0,0-1,1.8l4,13.17a1.45,1.45,0,0,0,1.8,1h0a1.43,1.43,0,0,0,1-1.79l-4-13.18A1.45,1.45,0,0,0,1628.08,720.48Z"/><rect class="cls-5" x="1630.09" y="710.79" width="4" height="12.82" rx="1.74" transform="translate(113.44 1650.89) rotate(-55.31)"/><path class="cls-5" d="M1631.61,719.42h0a1.43,1.43,0,0,0-1,1.79l3.19,10.56a1.43,1.43,0,0,0,1.79,1h0a1.44,1.44,0,0,0,1-1.79l-3.19-10.56A1.45,1.45,0,0,0,1631.61,719.42Z"/><path class="cls-5" d="M1620.13,715.56s-1.94,8,1.68,12.6c1.26,1.59,11.57-1.83,11.93-4.07s-2.48-9.16-2.48-9.16Z"/><path class="cls-5" d="M1621,722.6h0a1.43,1.43,0,0,0-1,1.79l3.18,10.54a1.44,1.44,0,0,0,1.79,1h0a1.45,1.45,0,0,0,1-1.8l-3.18-10.53A1.44,1.44,0,0,0,1621,722.6Z"/><path class="cls-22" d="M1633.54,715.71c13.43-8.82.46-39.19,6-58.05a56,56,0,0,1,3-8.45c.9-2-1.52-5.76-4.85-7.34-3.13-1.48-10.63-.5-11.22.49-9,15.09-11.08,42.71-6.57,74.34C1619.91,716.7,1627.77,719.5,1633.54,715.71Z"/><path class="cls-6" d="M1655,827.15s-.12,4.55-3.2,5.83-12,2.44-8.67,5.37c1.92,1.68,10.93.6,13.48.6s4.94,1.11,6.83-.6c2.08-1.87,0-11.2,0-11.2a10.23,10.23,0,0,1-4.17,1.09A8.19,8.19,0,0,1,1655,827.15Z"/><path class="cls-14" d="M1628.38,689.76s-.61,20.55,5.94,60c4.74,28.45,10.32,57.12,13.06,70.87a10.73,10.73,0,0,0,10,8.7l2.63.11a9,9,0,0,0,9.22-9.75l-6.65-93L1661,696.05Z"/><path class="cls-6" d="M1693.39,826.49s1.77,4.2-.51,6.63-9.94,7.17-5.69,8.47c2.43.74,10.21-4,12.53-5s5-1,6-3.35c1.12-2.57-4.62-10.22-4.62-10.22a10.2,10.2,0,0,1-3.35,2.72A8.16,8.16,0,0,1,1693.39,826.49Z"/><path class="cls-14" d="M1655.61,691.67s1.07,20.53,10.83,59.27c7,28,15,56.08,18.82,69.56a10.73,10.73,0,0,0,10.7,7.86l2.63-.11a9,9,0,0,0,8.39-10.48l-14.25-92.13-4.14-30.37Z"/><path class="cls-6" d="M1693.35,712.28c-.06,2.48-15,3.46-33.59,2.88s-33.35-3.14-33.28-5.62,15-3.93,33.51-3.35S1693.42,709.8,1693.35,712.28Z"/><path class="cls-22" d="M1688.82,642.11s-3.28-13-27.47-13.13c-34.88-.19-31.65,31.86-34.87,80.56,0,0,34.35-4.86,66.89,2.13C1693.37,711.67,1696.39,662,1688.82,642.11Z"/><path class="cls-22" d="M1697.74,640.24,1682,649s-34.59,3.14-43.77,1.63-11.7-8.25-11.7-8.25a50.6,50.6,0,0,1,26.4-12.82c1.56-.26,3.18-.45,4.86-.56a48,48,0,0,1,8.4.17C1687.21,631.52,1697.74,640.24,1697.74,640.24Z"/><path class="cls-14" d="M1629.4,711.55s20.08-5.91,61.68,2.2l.32,6-61,2.16Z"/><path class="cls-6" d="M1643.05,709.69s8.89-.22,12.33,7.07c0,0-1.92-7.28,1.82-7.16,1.54,0-1.55-1-1.55-1Z"/><path class="cls-22" d="M1700.77,711.67c-1.46-16-13.29-57.92-14.67-60.21-1.11-1.84.87-5.9,4-7.83,2.94-1.82,6.75-4.13,7.63-3.39,12.44,10.49,23.13,48.79,19.76,70Z"/><path class="cls-21" d="M1651.15,604.53a13.39,13.39,0,0,0,0,5.5c.64,3.06,3.76-4.46,3.76-4.46Z"/><path class="cls-5" d="M1669.2,629.55c-2.5,3.08-7,2.65-10.51,1.1-2.83-1.25-2.42-1.23-2-1.68,1-1.13,1.75-1.4,1.8-2.69l.07-1.7v-.21l.09-2.21.15-3.81.41-10,3.13,10.08.53,1.72,1.83,5.89C1665.27,627.91,1669.18,629.55,1669.2,629.55Z"/><path class="cls-6" d="M1663.34,621.7a7.37,7.37,0,0,1-4.81,2.88v-.21l.09-2.21Z"/><path class="cls-5" d="M1650.78,610.91c.78-5.91,5.39-10.19,10.3-9.55s8.26,6,7.48,11.89-5.39,10.19-10.3,9.55S1650,616.83,1650.78,610.91Z"/><path class="cls-13" d="M1657.88,611.7a.16.16,0,0,1-.12-.11.17.17,0,0,1,.09-.23,2,2,0,0,1,2.36.49.19.19,0,0,1,0,.26c-.07.07-.17,0-.26,0a3.09,3.09,0,0,0-2-.41A.14.14,0,0,1,1657.88,611.7Z"/><path class="cls-13" d="M1653.06,611.65a.11.11,0,0,1-.11-.07.21.21,0,0,1,0-.25,1.27,1.27,0,0,1,1.87-.05.22.22,0,0,1,0,.25.14.14,0,0,1-.2.05,1.93,1.93,0,0,0-1.55,0A.08.08,0,0,1,1653.06,611.65Z"/><path class="cls-12" d="M1653.92,616.61a18.21,18.21,0,0,0,5.84.46,2.82,2.82,0,0,1-3.53,2.27C1654.43,619,1653.92,616.61,1653.92,616.61Z"/><path class="cls-10" d="M1661.29,631.14s-4.24-1.31-5.37-.29-.3,5.68,1.65,6.1S1663.23,632.27,1661.29,631.14Z"/><path class="cls-23" d="M1658.8,630s5.54-2,6.63-3.92,6.82,2.57,6.72,3.92S1661.71,638.9,1661,638,1657.44,631.32,1658.8,630Z"/><path class="cls-23" d="M1658.8,630s-.83-2.06-.43-3.18c0,0,.26-1-.58-.91s-5.44,3.28-5.85,4.26-.47,5.58,1,5.91,5.08-4.6,5.5-5.09A1.34,1.34,0,0,0,1658.8,630Z"/><path class="cls-10" d="M1656.38,635.14s-14.61,37.89-13.64,53.77c0,0,1,9.27,7.6,14.27,0,0,8.87-5.81,10.06-14.27,1-6.95-3.36-47.21-.86-52.77Z"/><path class="cls-6" d="M1657.61,637.05h0c-1.29,0-2-2.54-2-2.65l.2,0s.69,2.48,1.82,2.5h0a3.64,3.64,0,0,0,2.2-1.09l.15.14A3.78,3.78,0,0,1,1657.61,637.05Z"/><path class="cls-6" d="M1663.48,605.44a8.87,8.87,0,0,1-6.89,3.62s-.56-.21.25-.72,2-1.93,1.66-2.37-3.8,4.32-7.45,4.07c0,0-5.06-.17-2.12-3.19,1.83-1.87,0-9.26,12.1-9.93,1.76-.1,5.58.13,7,2.86,0,0,4.8-.15,5.78,5.66,1.47,8.74-6.53,11.94-6.53,11.94s2-7.42-.2-6.46c-2.8,1.24-4.29-.35-3.07-2S1665.52,604.16,1663.48,605.44Z"/><path class="cls-5" d="M1668.54,614a1.75,1.75,0,1,1,.71-2.52A1.85,1.85,0,0,1,1668.54,614Z"/><path class="cls-6" d="M1671.83,600.16a.2.2,0,0,1-.14-.06,3.82,3.82,0,0,0-3.36-.81.19.19,0,0,1-.24-.14.2.2,0,0,1,.14-.25,4.15,4.15,0,0,1,3.74.91.21.21,0,0,1,0,.29A.2.2,0,0,1,1671.83,600.16Z"/><path class="cls-6" d="M1667.6,598.18h0a.21.21,0,0,1-.18-.23s.11-1.06-1.47-1.6a.21.21,0,0,1,.14-.39c1.91.66,1.74,2,1.74,2A.21.21,0,0,1,1667.6,598.18Z"/><path class="cls-6" d="M1717.5,710.25c.1,2.32-3.59,4.4-8.23,4.64s-8.5-1.44-8.6-3.76,3.59-4.39,8.24-4.63S1717.4,707.93,1717.5,710.25Z"/><path class="cls-5" d="M1715.57,711.33c.07,1.78-2.77,3.38-6.34,3.57s-6.55-1.11-6.62-2.89,2.76-3.39,6.34-3.57S1715.49,709.54,1715.57,711.33Z"/><path class="cls-5" d="M1711.81,717.75h0a1.54,1.54,0,0,1,1.39,1.67L1712,732.47a1.53,1.53,0,0,1-1.66,1.39h0a1.56,1.56,0,0,1-1.4-1.67l1.17-13.05A1.55,1.55,0,0,1,1711.81,717.75Z"/><path class="cls-5" d="M1707.9,717.4h0a1.54,1.54,0,0,1,1.39,1.67L1708,733.66a1.54,1.54,0,0,1-1.67,1.39h0a1.53,1.53,0,0,1-1.39-1.66l1.31-14.6A1.54,1.54,0,0,1,1707.9,717.4Z"/><rect class="cls-5" x="1696.19" y="712.71" width="13.65" height="4.26" rx="1.86" transform="translate(9.91 1452.85) rotate(-46.32)"/><path class="cls-5" d="M1704,717.05h0a1.54,1.54,0,0,1,1.4,1.66l-1.05,11.7a1.56,1.56,0,0,1-1.67,1.4h0a1.54,1.54,0,0,1-1.39-1.67l1-11.7A1.53,1.53,0,0,1,1704,717.05Z"/><path class="cls-5" d="M1715.13,710.56s3.75,7.93,1,13.5c-1,1.93-12.46.58-13.32-1.68s.62-10.09.62-10.09Z"/><path class="cls-5" d="M1715.7,718.09h0a1.53,1.53,0,0,1,1.39,1.66l-1,11.67a1.53,1.53,0,0,1-1.66,1.39h0a1.53,1.53,0,0,1-1.39-1.66l1-11.67A1.53,1.53,0,0,1,1715.7,718.09Z"/><path class="cls-6" d="M1626.27,709.56c0-.35-2.83-34.82,7.17-56.17l.37.17c-10,21.25-7.16,55.62-7.13,56Z"/><path class="cls-6" d="M1693.77,678.64a59,59,0,0,0-8.15-18.47l.33-.24a59.41,59.41,0,0,1,8.21,18.61Z"/><path class="cls-13" d="M1653.41,613.72c0,.39.31.67.59.63s.47-.37.42-.76-.31-.66-.59-.63A.63.63,0,0,0,1653.41,613.72Z"/><path class="cls-13" d="M1658,613.86c0,.38.32.66.6.63s.46-.38.41-.76-.31-.67-.59-.63S1658,613.47,1658,613.86Z"/><path class="cls-4" d="M1566.55,815.54s-7-6.65-4.61-10.44,6.5,8.14,6.5,8.14-2.12-14.1,2.26-14.34,0,14.34,0,14.34,1.63-3.4,3.21-3.61,1.13,2.88-1.7,5.91Z"/><path class="cls-14" d="M1573.66,815.83a.32.32,0,0,1-.2-.08.28.28,0,0,1,0-.4c2.46-2.63,3.19-5.16,2.77-6-.07-.14-.21-.31-.6-.26-1.34.18-2.92,2.9-3.42,3.94a.29.29,0,0,1-.53-.21c0-.13,3.73-12.54,1.48-15.38A1.31,1.31,0,0,0,1572,797a1.9,1.9,0,0,0-1.41.77c-2.64,3.25-.91,15-.89,15.17a.29.29,0,0,1-.56.14c-.91-2.67-3.72-9.63-5.78-9.88-.39,0-.74.19-1.07.71-2.58,4,5.1,11.4,5.18,11.48a.28.28,0,1,1-.39.41,30.08,30.08,0,0,1-3.69-4.35c-2.25-3.32-2.79-6-1.58-7.85a1.67,1.67,0,0,1,1.62-1c1.22.15,2.65,1.94,4.24,5.32.45,1,.85,1.89,1.17,2.7-.37-3.72-.76-10.71,1.3-13.25a2.5,2.5,0,0,1,1.83-1,1.88,1.88,0,0,1,1.67.74c1.85,2.34.19,10-.79,13.77.72-1.06,1.72-2.19,2.74-2.33a1.07,1.07,0,0,1,1.18.57c.58,1.13-.33,3.91-2.86,6.62A.29.29,0,0,1,1573.66,815.83Z"/><path class="cls-4" d="M1309.6,853.8s-10.37-9.81-6.8-15.4,9.58,12,9.58,12-3.12-20.81,3.35-21.17,0,21.17,0,21.17,2.39-5,4.73-5.33,1.68,4.25-2.5,8.72Z"/><path class="cls-14" d="M1320.09,854.23a.44.44,0,0,1-.29-.12.43.43,0,0,1,0-.6c3.63-3.87,4.7-7.6,4.09-8.8a.76.76,0,0,0-.88-.39c-2,.27-4.32,4.29-5,5.81a.43.43,0,0,1-.54.22.43.43,0,0,1-.25-.52c0-.05,1.41-4.71,2.35-9.85,1.24-6.7,1.19-11.14-.16-12.85a2,2,0,0,0-1.76-.77,2.83,2.83,0,0,0-2.09,1.14c-3.9,4.79-1.34,22.21-1.31,22.39a.42.42,0,0,1-.82.2c-1.34-3.93-5.5-14.21-8.53-14.57-.57-.07-1.09.27-1.59,1-3.81,6,7.54,16.83,7.65,16.94a.41.41,0,0,1,0,.59.43.43,0,0,1-.6,0c-.49-.46-12-11.45-7.78-18a2.5,2.5,0,0,1,2.4-1.42c3,.36,6.23,7.38,8,11.78-.55-5.5-1.11-15.77,1.93-19.5a3.65,3.65,0,0,1,2.69-1.44,2.77,2.77,0,0,1,2.47,1.09c2.72,3.45.27,14.73-1.17,20.31,1.07-1.57,2.54-3.24,4-3.43a1.58,1.58,0,0,1,1.74.83c1.09,2.12-1.29,6.64-4.22,9.77A.41.41,0,0,1,1320.09,854.23Z"/><path class="cls-4" d="M1346.79,815.86s-6.8-6.45-4.46-10.12,6.29,7.89,6.29,7.89-2-13.66,2.2-13.9,0,13.9,0,13.9,1.57-3.3,3.11-3.5,1.1,2.79-1.65,5.73Z"/><path class="cls-14" d="M1353.68,816.14a.27.27,0,0,1-.18-.08.27.27,0,0,1,0-.39c2.38-2.55,3.09-5,2.68-5.79-.06-.13-.2-.3-.57-.25-1.31.18-2.84,2.82-3.31,3.82a.29.29,0,0,1-.36.14.28.28,0,0,1-.16-.34c0-.12,3.61-12.15,1.44-14.91a1.3,1.3,0,0,0-1.16-.5,1.83,1.83,0,0,0-1.37.75c-2.56,3.14-.88,14.58-.86,14.7a.28.28,0,0,1-.21.31.29.29,0,0,1-.33-.18c-.88-2.58-3.61-9.33-5.6-9.57-.38,0-.72.18-1,.69-2.5,3.92,4.94,11.05,5,11.12a.28.28,0,1,1-.38.4c-.32-.3-7.86-7.52-5.11-11.82a1.63,1.63,0,0,1,1.58-.94c1.18.14,2.56,1.88,4.11,5.15.43.92.82,1.84,1.13,2.62-.36-3.6-.74-10.38,1.26-12.84a2.37,2.37,0,0,1,1.77-.94,1.82,1.82,0,0,1,1.62.71c1.79,2.26.18,9.68-.77,13.34.71-1,1.67-2.13,2.66-2.26a1,1,0,0,1,1.14.55c.56,1.1-.32,3.8-2.77,6.42A.29.29,0,0,1,1353.68,816.14Z"/><path class="cls-4" d="M1175.23,836.3s-6.81-6.45-4.47-10.12,6.3,7.88,6.3,7.88-2-13.66,2.2-13.9,0,13.9,0,13.9,1.57-3.29,3.11-3.5,1.09,2.8-1.65,5.74Z"/><path class="cls-14" d="M1182.12,836.57a.28.28,0,0,1-.19-.07.27.27,0,0,1,0-.39c2.38-2.55,3.08-5,2.68-5.79a.49.49,0,0,0-.57-.25c-1.31.17-2.84,2.81-3.32,3.82a.26.26,0,0,1-.35.13.28.28,0,0,1-.17-.33c0-.13,3.62-12.15,1.44-14.91a1.26,1.26,0,0,0-1.15-.5,1.83,1.83,0,0,0-1.37.74c-2.56,3.15-.88,14.59-.86,14.7a.28.28,0,0,1-.54.14c-.88-2.58-3.61-9.33-5.6-9.57-.38,0-.72.18-1,.68-2.51,3.93,4.94,11,5,11.12a.28.28,0,1,1-.39.41c-.32-.31-7.85-7.52-5.1-11.83a1.63,1.63,0,0,1,1.57-.93c1.18.14,2.57,1.87,4.11,5.15.44.92.82,1.83,1.14,2.61-.37-3.6-.74-10.37,1.26-12.83a2.39,2.39,0,0,1,1.77-.95,1.83,1.83,0,0,1,1.62.72c1.78,2.26.17,9.67-.77,13.34.7-1,1.67-2.13,2.65-2.26a1,1,0,0,1,1.14.55c.57,1.09-.31,3.79-2.77,6.42A.28.28,0,0,1,1182.12,836.57Z"/><path class="cls-4" d="M1759.86,838.35s-12.9-12.22-8.46-19.17,11.93,14.94,11.93,14.94-3.88-25.9,4.16-26.35,0,26.35,0,26.35,3-6.25,5.9-6.63,2.08,5.29-3.12,10.86Z"/><path class="cls-14" d="M1772.93,838.87a.5.5,0,0,1-.36-.14.51.51,0,0,1,0-.74c4.52-4.83,5.85-9.47,5.08-11-.12-.25-.37-.56-1.08-.47-2.48.33-5.38,5.33-6.29,7.23a.51.51,0,0,1-.66.26.53.53,0,0,1-.32-.64c0-.06,1.76-5.86,2.94-12.25,1.54-8.34,1.47-13.87-.21-16a2.43,2.43,0,0,0-2.19-1,3.46,3.46,0,0,0-2.59,1.42c-4.86,6-1.67,27.65-1.64,27.86a.53.53,0,0,1-1,.25c-1.67-4.89-6.84-17.68-10.62-18.13-.72-.08-1.36.34-2,1.3-4.74,7.43,9.37,20.94,9.52,21.08a.52.52,0,0,1,0,.74.53.53,0,0,1-.75,0c-.61-.58-14.89-14.25-9.68-22.41.84-1.31,1.85-1.91,3-1.77,3.71.44,7.75,9.18,9.93,14.66-.69-6.84-1.38-19.63,2.4-24.27a4.57,4.57,0,0,1,3.35-1.8,3.48,3.48,0,0,1,3.08,1.36c3.38,4.29.33,18.34-1.46,25.28,1.33-1.95,3.16-4,5-4.27a2,2,0,0,1,2.16,1c1.36,2.65-1.6,8.26-5.25,12.17A.51.51,0,0,1,1772.93,838.87Z"/><path class="cls-4" d="M1599.08,854.32s-10.76-10.18-7.06-16,10,12.45,10,12.45-3.24-21.58,3.47-22,0,22,0,22,2.48-5.21,4.91-5.53,1.74,4.42-2.6,9.05Z"/><path class="cls-14" d="M1610,854.76a.42.42,0,0,1-.3-.12.44.44,0,0,1,0-.62c3.77-4,4.88-7.89,4.24-9.13a.77.77,0,0,0-.91-.4c-2.06.27-4.48,4.44-5.23,6a.44.44,0,0,1-.82-.32c0-.05,1.46-4.88,2.45-10.21,1.28-7,1.22-11.56-.18-13.34a2,2,0,0,0-1.82-.79,2.89,2.89,0,0,0-2.16,1.18c-4,5-1.4,23-1.37,23.22a.43.43,0,0,1-.33.49.44.44,0,0,1-.52-.28c-1.39-4.08-5.7-14.74-8.84-15.11-.6-.07-1.14.28-1.65,1.08-4,6.2,7.81,17.45,7.93,17.57a.44.44,0,1,1-.6.63c-.51-.48-12.41-11.87-8.07-18.68a2.58,2.58,0,0,1,2.49-1.47c1.86.22,4,3,6.49,8.13.68,1.45,1.3,2.9,1.79,4.14-.57-5.69-1.16-16.4,2-20.28a3.8,3.8,0,0,1,2.8-1.5,2.91,2.91,0,0,1,2.56,1.13c2.82,3.58.28,15.29-1.22,21.07,1.12-1.62,2.64-3.35,4.2-3.56a1.64,1.64,0,0,1,1.8.86c1.14,2.21-1.33,6.89-4.37,10.14A.43.43,0,0,1,1610,854.76Z"/><path class="cls-4" d="M1396,854.35s-4.74-4.49-3.11-7.05,4.38,5.5,4.38,5.5-1.43-9.52,1.53-9.69,0,9.69,0,9.69,1.1-2.3,2.17-2.44.76,1.94-1.15,4Z"/><path class="cls-14" d="M1396.46,854.54a.21.21,0,0,1-.13,0c-.23-.21-5.47-5.24-3.56-8.24a1.15,1.15,0,0,1,1.1-.65c1.36.17,2.85,3.38,3.65,5.39-.25-2.51-.51-7.21.88-8.92a1.68,1.68,0,0,1,1.23-.66,1.28,1.28,0,0,1,1.13.5c1.24,1.58.12,6.74-.54,9.29.49-.72,1.17-1.48,1.85-1.57a.73.73,0,0,1,.8.38c.39.76-.22,2.64-1.93,4.47a.19.19,0,0,1-.27,0,.18.18,0,0,1,0-.27c1.65-1.78,2.15-3.48,1.86-4,0-.09-.14-.21-.4-.18-.91.12-2,2-2.3,2.66a.21.21,0,0,1-.25.1.2.2,0,0,1-.11-.24c0-.08,2.51-8.46,1-10.38a.91.91,0,0,0-.81-.35,1.28,1.28,0,0,0-1,.52c-1.78,2.19-.61,10.16-.6,10.24a.19.19,0,0,1-.15.21.2.2,0,0,1-.23-.12c-.61-1.8-2.51-6.5-3.9-6.66-.26,0-.5.12-.72.47-1.75,2.74,3.44,7.7,3.49,7.75a.18.18,0,0,1,0,.27A.2.2,0,0,1,1396.46,854.54Z"/><path class="cls-24" d="M222.05,504.87l8.76,5.42A14.36,14.36,0,0,1,236,529a21.27,21.27,0,0,0-1,2.07c.33-.38-13.42-26.11-13.42-26.11"/><rect class="cls-25" x="187.15" y="552.24" width="19.66" height="36.43" rx="8.45"/><path class="cls-24" d="M234.87,531.09c.21,1.72-7.83,4.62-7.93,6.43l1.31,3.64c-9.88-3.58-1.16,1.87-1.16,1.89-2.94,8.7-1.92,13.51-10.29,16.82a30.75,30.75,0,0,1-13.53,2.07c-6.4-.44-12.09,1.55-16.74-.66a9.76,9.76,0,0,1-2.73-1.93,30.89,30.89,0,0,1-4.32-5.38c-.48-.77-.94-1.54-1.36-2.35-2.52-4.88-7.69-19.2-7.27-25.08C172,510,187.91,498.84,206.2,500.1l1.41.06a30.92,30.92,0,0,1,23.48,13.54c.27.41.54.83.8,1.25h0c1.48,2.42,2.28,12.77,2.28,12.77A18.07,18.07,0,0,1,234.87,531.09Z"/><path class="cls-26" d="M234.14,536.4l-.23,4.56-.39,7.55-.62,2.68c-.05,1.19-.65,7.44-.87,8.58-2.08,10.68-9.1,13-20,14.3a6.51,6.51,0,0,1-1,.1,24.46,24.46,0,0,1-3.54.08,23,23,0,0,1-3.42-.42,24.58,24.58,0,0,1-6.2-2h0a25.6,25.6,0,0,1-11.34-10.54,24.7,24.7,0,0,1-3.24-11.51c0-.29,0-.57,0-.87a9.12,9.12,0,0,1,0-1v-.17l0-.82.12-2.15.36-7.42,0-.07h0l.06-1.38.06-1.07.05-1,0-.26a19.82,19.82,0,0,1,.95-4.95,25.12,25.12,0,0,1,1.22-3.24c.07-.16.12-.31.2-.47a23.78,23.78,0,0,1,1.31-2.5v0a25.45,25.45,0,0,1,7.22-7.75c.58-.42,1.19-.81,1.8-1.18a26,26,0,0,1,14.49-3.55,22.59,22.59,0,0,1,11.14,3.66,25.45,25.45,0,0,1,5.73,4.69,24.31,24.31,0,0,1,5,8.93q.1.29.18.57a18.07,18.07,0,0,1,.7,3.36A32.23,32.23,0,0,1,234.14,536.4Z"/><path class="cls-24" d="M224.94,513.82c5.34,14.72-8.72,13.53-9.38,20.29a64.91,64.91,0,0,0-.54,7.41L213.94,545a2.54,2.54,0,0,1-5-.71v-.07l.12-5.51L206.35,546a41.73,41.73,0,0,1-19.69,22.24S169.5,558,169.5,534.7a51.24,51.24,0,0,1,.34-5.8,39,39,0,0,1,.92-5.08c7.11-28.94,42.67-19.06,46.09-17.78C220.44,507.39,224.94,513.82,224.94,513.82Z"/><path class="cls-26" d="M237.16,552s0,.38,0,.38c0,1.6-1.43,2.86-4.84,2.76l.47-12.43C235.57,546.94,236.91,549.4,237.16,552Z"/><path class="cls-24" d="M235.31,537h-7.6a1.61,1.61,0,0,1-1.61-1.61h0a1.61,1.61,0,0,1,1.61-1.6h7.6a1.6,1.6,0,0,1,1.6,1.6h0A1.61,1.61,0,0,1,235.31,537Z"/><path class="cls-27" d="M231,542.68h0a1.14,1.14,0,0,1-1.14-1.15v-1.68A1.15,1.15,0,0,1,231,538.7h0a1.16,1.16,0,0,1,1.15,1.15v1.68A1.15,1.15,0,0,1,231,542.68Z"/><path class="cls-28" d="M197.59,559.94a41.66,41.66,0,0,1-10.93,8.26S169.5,558,169.5,534.7a51.24,51.24,0,0,1,.34-5.8,39,39,0,0,1,.92-5.08c.76,4.44,2.76,11.15,7.86,19.45C186.39,555.89,194.83,559.17,197.59,559.94Z"/><path class="cls-24" d="M232.25,559l-.22,8.7c0,7.41-8.78,10.39-15.3,9.69l-10.39-1.12,1-9L210.22,550l-4.58-12.86,9.43,3.91v0c-.71,10.22,6.62,18.48,16.85,18Z"/><path class="cls-25" d="M208.35,536.84a1.9,1.9,0,0,1,1.89,1.91l-.05,6.47,0,5.66-2.23,0a2.42,2.42,0,0,1-.47,0,7.28,7.28,0,0,1-6.63-7.24,6.68,6.68,0,0,1,2.13-4.85,6.92,6.92,0,0,1,4.48-1.88h0a2.24,2.24,0,0,1,.58,0Z"/><rect class="cls-27" x="141.61" y="726.13" width="59.78" height="11.02" transform="translate(343 1463.29) rotate(180)"/><line class="cls-29" x1="121.23" y1="828.95" x2="121.23" y2="833.17"/><rect class="cls-30" x="370.18" y="727.06" width="54.76" height="11.02" transform="translate(795.11 1465.15) rotate(180)"/><rect class="cls-30" x="416.12" y="689.58" width="12.45" height="155.22"/><rect class="cls-31" x="366.11" y="688.65" width="12.45" height="156.15"/><rect class="cls-30" x="366.11" y="682.35" width="12.45" height="66.62"/><rect class="cls-30" x="71.52" y="727.06" width="54.76" height="11.02" transform="translate(197.79 1465.15) rotate(180)"/><rect class="cls-30" x="117.46" y="689.58" width="12.45" height="155.22"/><rect class="cls-30" x="67.45" y="688.65" width="12.45" height="156.15"/><rect class="cls-32" x="297.87" y="585.32" width="41.1" height="88.41"/><path class="cls-33" d="M255.92,556.78H374.33a8.35,8.35,0,0,1,8.35,8.35v79.56a0,0,0,0,1,0,0H247.57a0,0,0,0,1,0,0V565.13A8.35,8.35,0,0,1,255.92,556.78Z"/><path class="cls-33" d="M246.3,642.17H381.38a0,0,0,0,1,0,0v2.22a13.53,13.53,0,0,1-13.53,13.53h-108a13.53,13.53,0,0,1-13.53-13.53v-2.22a0,0,0,0,1,0,0Z"/><path class="cls-34" d="M378,562.16v82.53H242.91V562.16a5.39,5.39,0,0,1,5.4-5.38H372.64A5.39,5.39,0,0,1,378,562.16Z"/><path class="cls-35" d="M373.11,562v75.09a.51.51,0,0,1-.5.5H248.33a.51.51,0,0,1-.5-.5V562a.5.5,0,0,1,.5-.49H372.61A.5.5,0,0,1,373.11,562Z"/><path class="cls-36" d="M378,642.17v4.35a11.37,11.37,0,0,1-11.39,11.39H254.31a11.39,11.39,0,0,1-11.38-11.39v-4.35Z"/><rect class="cls-37" x="255.09" y="570.77" width="41.98" height="1.45"/><rect class="cls-33" x="315.26" y="570.77" width="19.88" height="1.45"/><rect class="cls-38" x="343.96" y="570.77" width="19.88" height="1.45"/><rect class="cls-37" x="336.91" y="570.77" width="4.7" height="1.45"/><rect class="cls-39" x="299.03" y="570.77" width="13.93" height="1.45"/><rect class="cls-37" x="255.09" y="607.97" width="41.98" height="1.45"/><rect class="cls-33" x="315.26" y="607.97" width="19.88" height="1.45"/><rect class="cls-38" x="343.96" y="607.97" width="19.88" height="1.45"/><rect class="cls-37" x="336.91" y="607.97" width="4.7" height="1.45"/><rect class="cls-40" x="299.03" y="607.97" width="13.93" height="1.45"/><rect class="cls-37" x="321.86" y="595.57" width="41.98" height="1.45" transform="translate(685.69 1192.59) rotate(180)"/><rect class="cls-33" x="283.78" y="595.57" width="19.88" height="1.45" transform="translate(587.44 1192.59) rotate(180)"/><rect class="cls-38" x="255.09" y="595.57" width="19.88" height="1.45" transform="translate(530.05 1192.59) rotate(180)"/><rect class="cls-37" x="277.31" y="595.57" width="4.7" height="1.45" transform="translate(559.33 1192.59) rotate(180)"/><rect class="cls-40" x="305.96" y="595.57" width="13.93" height="1.45" transform="translate(625.85 1192.59) rotate(180)"/><rect class="cls-39" x="255.09" y="576.97" width="15.74" height="1.45"/><rect class="cls-37" x="302.15" y="576.97" width="6.76" height="1.45"/><rect class="cls-33" x="330.84" y="576.97" width="32.99" height="1.45"/><rect class="cls-37" x="310.67" y="576.97" width="17.82" height="1.45"/><rect class="cls-37" x="272.8" y="576.97" width="27.05" height="1.45"/><rect class="cls-37" x="255.09" y="614.17" width="15.74" height="1.45"/><rect class="cls-37" x="302.15" y="614.17" width="6.76" height="1.45"/><rect class="cls-37" x="330.84" y="614.17" width="32.99" height="1.45"/><rect class="cls-37" x="310.67" y="614.17" width="17.82" height="1.45"/><rect class="cls-37" x="272.8" y="614.17" width="27.05" height="1.45"/><rect class="cls-39" x="255.09" y="601.77" width="15.74" height="1.45"/><rect class="cls-37" x="302.15" y="601.77" width="6.76" height="1.45"/><rect class="cls-33" x="330.84" y="601.77" width="32.99" height="1.45"/><rect class="cls-37" x="310.67" y="601.77" width="17.82" height="1.45"/><rect class="cls-37" x="272.8" y="601.77" width="27.05" height="1.45"/><rect class="cls-33" x="255.09" y="583.17" width="15.74" height="1.45"/><rect class="cls-37" x="272.8" y="583.17" width="27.05" height="1.45"/><rect class="cls-33" x="284.1" y="589.37" width="15.74" height="1.45" transform="translate(583.95 1180.19) rotate(180)"/><rect class="cls-37" x="255.09" y="589.37" width="27.05" height="1.45" transform="translate(537.22 1180.19) rotate(180)"/><rect class="cls-41" x="279.87" y="669.93" width="61.22" height="6.12" rx="2.63"/><path class="cls-42" d="M273.13,675.56H431.6a7.62,7.62,0,0,1,7.62,7.62v6.28a0,0,0,0,1,0,0H265.51a0,0,0,0,1,0,0v-6.28A7.62,7.62,0,0,1,273.13,675.56Z"/><path class="cls-43" d="M388.58,680.49v9H54.13v-9a4.93,4.93,0,0,1,4.92-4.93H383.66A4.93,4.93,0,0,1,388.58,680.49Z"/><path class="cls-44" d="M291.81,675.56l-8.52,13.9H201.47l1.11-13.9Z"/><rect class="cls-45" x="456.6" y="737.11" width="85.95" height="107.7" transform="translate(999.15 1581.91) rotate(-180)"/><rect class="cls-46" x="426.15" y="737.11" width="84.46" height="107.7" transform="matrix(-1, 0, 0, -1, 936.75, 1581.91)"/><rect class="cls-47" x="425.18" y="745.17" width="80.12" height="29.14" transform="translate(930.49 1519.48) rotate(180)"/><rect class="cls-47" x="425.18" y="779.36" width="80.12" height="29.14" transform="translate(930.49 1587.86) rotate(180)"/><rect class="cls-47" x="425.18" y="813.55" width="80.12" height="31.26" transform="translate(930.49 1658.35) rotate(180)"/><path class="cls-12" d="M450.68,761.3h20a1.56,1.56,0,0,0,1.56-1.56h0a1.56,1.56,0,0,0-1.56-1.56h-20a1.56,1.56,0,0,0-1.56,1.56h0A1.56,1.56,0,0,0,450.68,761.3Z"/><path class="cls-12" d="M449.9,795.25h20a1.56,1.56,0,0,0,1.56-1.56h0a1.56,1.56,0,0,0-1.56-1.56h-20a1.56,1.56,0,0,0-1.56,1.56h0A1.56,1.56,0,0,0,449.9,795.25Z"/><path class="cls-12" d="M449.9,829.2h20a1.57,1.57,0,0,0,1.56-1.56h0a1.57,1.57,0,0,0-1.56-1.57h-20a1.57,1.57,0,0,0-1.56,1.57h0A1.57,1.57,0,0,0,449.9,829.2Z"/><path class="cls-45" d="M230.18,851.39l40.14.43a4.33,4.33,0,0,0,4.38-4.29h0a4.32,4.32,0,0,0-2.86-4.12l-19.79-7.15-21.71.3Z"/><path class="cls-27" d="M271.12,852.94l-40.65-.13V849.9L274,850h0A2.91,2.91,0,0,1,271.12,852.94Z"/><line class="cls-48" x1="251.54" y1="842.13" x2="256.27" y2="837.11"/><line class="cls-48" x1="254.99" y1="843.6" x2="259.72" y2="838.58"/><line class="cls-48" x1="258.29" y1="845.56" x2="263.62" y2="839.87"/><path class="cls-49" d="M228.81,838.2c2.33-39.16,1.7-75.37-1.35-82.7-3.13-4.55-27.52-14.42-51.89-15.48L187,715.11c32,1.61,54.83,13.61,62.82,27.32,3.38,5.78,6.31,17.46,4.73,57.39-.83,20.91-1.85,37.3-1.85,37.3Z"/><path class="cls-50" d="M265.92,852.39l40.15.28a4.34,4.34,0,0,0,4.37-4.31h0a4.34,4.34,0,0,0-2.88-4.11l-19.82-7.07-21.71.38Z"/><path class="cls-27" d="M306.87,853.79l-41.29,0v-2.92l44.2,0h0A2.91,2.91,0,0,1,306.87,853.79Z"/><line class="cls-48" x1="287.25" y1="843.05" x2="291.97" y2="838.01"/><line class="cls-48" x1="290.71" y1="844.51" x2="295.42" y2="839.47"/><line class="cls-48" x1="294.02" y1="846.46" x2="299.32" y2="840.74"/><path class="cls-49" d="M264.48,838.2c2.33-39.16,1.7-75.37-1.35-82.7C260,751,235.61,741.08,211.23,740l11.41-24.91c32,1.61,54.83,13.61,62.82,27.32,3.37,5.78,6.3,17.46,4.72,57.39-.82,20.91-1.85,37.3-1.85,37.3Z"/><path class="cls-49" d="M230.12,722.28A18.12,18.12,0,0,1,212,740.4H181.52a18.26,18.26,0,0,1-8.89-2.33,10.68,10.68,0,0,1-1-.6,18.09,18.09,0,0,1-8.25-15.19l.55-9.67,65.64-.57Z"/><path class="cls-25" d="M251.05,670.64l15.71-2.51a2.11,2.11,0,0,0,1.75-2.42h0a2.11,2.11,0,0,0-2.42-1.75l-15.7,2.51a2.12,2.12,0,0,0-1.76,2.42h0A2.13,2.13,0,0,0,251.05,670.64Z"/><path class="cls-25" d="M256.05,674.89l12.62-2a2.12,2.12,0,0,0,1.75-2.42h0A2.12,2.12,0,0,0,268,668.7l-12.61,2a2.1,2.1,0,0,0-1.75,2.41h0A2.12,2.12,0,0,0,256.05,674.89Z"/><path class="cls-25" d="M253.14,680.39,268.07,678a2.13,2.13,0,0,0,1.75-2.42h0a2.11,2.11,0,0,0-2.42-1.75l-14.93,2.38a2.13,2.13,0,0,0-1.75,2.42h0A2.11,2.11,0,0,0,253.14,680.39Z"/><path class="cls-25" d="M257.83,666.58c-.17,0-2.09,0-4.18,0a22.78,22.78,0,0,0-10.41,2.33l-6.19,3s3.55,10.53,4,10.62c11.94,2.16,16-3.26,16-3.26Z"/><rect class="cls-12" x="243.28" y="666.54" width="5.3" height="17.23"/><path class="cls-49" d="M208.54,685.64A32.2,32.2,0,0,1,179.36,667l-.26-.56-16.36-50,20.16-6.6,15.94,48.68a11,11,0,0,0,9.81,5.89l34.75-.34.21,21.2-34.75.35Z"/><path class="cls-25" d="M321.94,665a13.19,13.19,0,0,0-5.63-5.39l-.06,0a22.75,22.75,0,0,0-10.41-2.3l-6.9.14s-1.75,15-1.66,14.48c.18-1,16.87-.72,24.52-.55a2.15,2.15,0,0,0,1.92-3.19Z"/><rect class="cls-12" x="294.76" y="656.33" width="6.59" height="17.65"/><path class="cls-51" d="M262.52,676a32.21,32.21,0,0,1-29.18-18.66l-23.55-51,19.25-8.9,23.56,51a10.89,10.89,0,0,0,10,6.35l34.76-.34.21,21.2-34.76.35Z"/><path class="cls-51" d="M235.74,616.33l-.39,44.52-.5,56.68a18.85,18.85,0,0,1-4.86,3.28,74,74,0,0,1-15.7,5.71c-8.83,2.29-21.25,2.64-31.86,2.38-11.71-.28-21.22-1.31-21.22-1.31l.25-111.26A31.8,31.8,0,0,1,187.71,585a32.29,32.29,0,0,1,5.52-.47H204A31.78,31.78,0,0,1,235.74,616.33Z"/><rect class="cls-31" x="186.18" y="762.4" width="10.72" height="61.56"/><path class="cls-30" d="M186.18,765.87v13.48l10.73-3.91v-9.13Z"/><path class="cls-52" d="M224.54,767.72H160.32a6,6,0,0,1-6-6h0a6,6,0,0,1,6-6h64.22a6,6,0,0,1,6,6h0A6,6,0,0,1,224.54,767.72Z"/><path class="cls-52" d="M237,843.84h-6.71c0-7.55-6.52-13.7-14.54-13.7H166.87c-8,0-14.53,6.15-14.53,13.7h-6.71c0-11,9.53-20,21.24-20h48.88C227.47,823.82,237,832.8,237,843.84Z"/><rect class="cls-52" x="183.64" y="814.33" width="15.65" height="9.64"/><ellipse class="cls-27" cx="148.73" cy="849.96" rx="5.57" ry="5.25"/><path class="cls-53" d="M148.06,841h2.15a6.55,6.55,0,0,1,6.55,6.55v2a0,0,0,0,1,0,0H141.51a0,0,0,0,1,0,0v-2A6.55,6.55,0,0,1,148.06,841Z"/><ellipse class="cls-27" cx="233.96" cy="849.96" rx="5.57" ry="5.25"/><path class="cls-53" d="M233.29,841h2.15a6.55,6.55,0,0,1,6.55,6.55v2a0,0,0,0,1,0,0H226.74a0,0,0,0,1,0,0v-2A6.55,6.55,0,0,1,233.29,841Z"/><rect class="cls-52" x="187.35" y="825.78" width="8.88" height="18.97"/><ellipse class="cls-27" cx="191.97" cy="849.96" rx="5.57" ry="5.25"/><path class="cls-53" d="M191.31,841h2.15a6.55,6.55,0,0,1,6.55,6.55v2a0,0,0,0,1,0,0H184.76a0,0,0,0,1,0,0v-2A6.55,6.55,0,0,1,191.31,841Z"/><path class="cls-54" d="M106.15,646.57l14.37,103.67A13,13,0,0,0,133,761.5l52.41.61L156.31,631.74l-37.2,0A13.06,13.06,0,0,0,106.15,646.57Z"/><rect class="cls-55" x="163.19" y="739.52" width="95.45" height="22.59" rx="9.7"/><path class="cls-49" d="M178.62,613c-1.41,20.44,2.57,94.15,3.81,115.92-11.71-.28-21.22-1.31-21.22-1.31l.25-111.26A31.8,31.8,0,0,1,187.71,585S180.28,588.91,178.62,613Z"/><polygon class="cls-12" points="215.15 586.49 182.38 586.49 182.38 577.33 215.15 581.2 215.15 586.49"/><path class="cls-55" d="M162.25,747.84,147,641.51a8.83,8.83,0,0,1,7.91-9.77h0a9.17,9.17,0,0,1,10.37,7.45l15.22,106.32a8.83,8.83,0,0,1-7.9,9.78h0C167.59,755.93,165,759.48,162.25,747.84Z"/><path class="cls-49" d="M235.35,660.85l-.5,56.68a18.85,18.85,0,0,1-4.86,3.28l-7.55-85.43S229.35,652.67,235.35,660.85Z"/><path class="cls-56" d="M377.82,621.21l-3.75,21-2.63,14.68a11.36,11.36,0,0,1-4.81,1.06h-35.5c3.36-3.48,9-9.34,15.11-15.74,9.48-10,20-21.26,24.69-27Z"/></g></g></svg>